<svg width="16" height="16" viewBox="0 0 16 16" fill="none" xmlns="http://www.w3.org/2000/svg">
<g clip-path="url(#clip0_219_158)">
<path d="M16 11.5C16 13.9844 13.9844 16 11.5 16C9.01562 16 7 13.9844 7 11.5C7 9.01562 9.01562 7 11.5 7C13.9844 7 16 9.01562 16 11.5ZM12.6469 9.64688L11.5 10.7937L10.3531 9.64688C10.1594 9.45 9.84063 9.45 9.64688 9.64688C9.45 9.84063 9.45 10.1594 9.64688 10.3531L10.7937 11.5L9.64688 12.6469C9.45 12.8406 9.45 13.1594 9.64688 13.3531C9.84063 13.55 10.1594 13.55 10.3531 13.3531L11.5 12.2063L12.6469 13.3531C12.8406 13.55 13.1594 13.55 13.3531 13.3531C13.55 13.1594 13.55 12.8406 13.3531 12.6469L12.2063 11.5L13.3531 10.3531C13.55 10.1594 13.55 9.84063 13.3531 9.64688C13.1594 9.45 12.8406 9.45 12.6469 9.64688Z" fill="#CC0F1F"/>
<path d="M0 1C0 0.447715 0.447715 0 1 0H5C5.55228 0 6 0.447715 6 1V4C6 4.55228 5.55228 5 5 5H1C0.447715 5 0 4.55228 0 4V1Z" fill="#E8939A"/>
<path d="M0 7C0 6.44771 0.447715 6 1 6H5C5.55228 6 6 6.44771 6 7V13C6 13.5523 5.55228 14 5 14H1C0.447715 14 0 13.5523 0 13V7Z" fill="#E8939A"/>
<path d="M13 6.20703C12.5232 6.07217 12.02 6 11.5 6C9.63984 6 7.99537 6.92345 7 8.33692V1C7 0.447715 7.44772 0 8 0H12C12.5523 0 13 0.447715 13 1V6.20703Z" fill="#E8939A"/>
</g>
<defs>
<clipPath id="clip0_219_158">
<rect width="16" height="16" fill="white"/>
</clipPath>
</defs>
</svg>
