<svg width="16" height="16" viewBox="0 0 16 16" fill="none" xmlns="http://www.w3.org/2000/svg">
<path d="M2 2C2 0.895313 2.89531 0 4 0H9V5H14V14C14 15.1031 13.1031 16 12 16H4C2.89531 16 2 15.1031 2 14V2Z" fill="#B7A9D1"/>
<path d="M9.00007 5V0L14.0001 5H9.00007Z" fill="#523681"/>
<path d="M3.79036 12.014C3.51036 12.014 3.37036 11.937 3.37036 11.783V7.38C3.37036 7.19333 3.46369 7.1 3.65036 7.1H4.84036C5.35369 7.1 5.73403 7.226 5.98136 7.478C6.23336 7.72533 6.35936 8.11267 6.35936 8.64C6.35936 8.864 6.31969 9.05767 6.24036 9.221C6.16569 9.37967 6.07003 9.50567 5.95336 9.599C5.83669 9.68767 5.71303 9.73667 5.58236 9.746V9.774C5.67569 9.80667 5.76203 9.86967 5.84136 9.963C5.92536 10.0517 5.98369 10.1543 6.01636 10.271L6.44336 11.671C6.46203 11.727 6.47136 11.7807 6.47136 11.832C6.47136 11.9067 6.44103 11.9557 6.38036 11.979C6.32436 12.0023 6.21469 12.014 6.05136 12.014H5.80636C5.69436 12.014 5.60103 12 5.52636 11.972C5.45169 11.944 5.40503 11.8927 5.38636 11.818L5.06436 10.523C5.03169 10.3877 4.98269 10.2967 4.91736 10.25C4.85669 10.2033 4.75869 10.18 4.62336 10.18H4.45536V11.783C4.45536 11.937 4.31536 12.014 4.03536 12.014H3.79036ZM4.45536 9.263H4.84036C5.01769 9.263 5.13903 9.214 5.20436 9.116C5.27436 9.018 5.30936 8.85933 5.30936 8.64C5.30936 8.42067 5.27436 8.262 5.20436 8.164C5.13903 8.066 5.01769 8.017 4.84036 8.017H4.45536V9.263Z" fill="#523681"/>
<path d="M8.21436 12.014C7.93436 12.014 7.79436 11.937 7.79436 11.783V8.017H7.01036C6.87036 8.017 6.80036 7.90033 6.80036 7.667V7.45C6.80036 7.21667 6.87036 7.1 7.01036 7.1H9.66336C9.80336 7.1 9.87336 7.21667 9.87336 7.45V7.667C9.87336 7.90033 9.80336 8.017 9.66336 8.017H8.87936V11.783C8.87936 11.937 8.73936 12.014 8.45936 12.014H8.21436Z" fill="#523681"/>
<path d="M10.9265 12.014C10.6465 12.014 10.5065 11.937 10.5065 11.783V7.38C10.5065 7.19333 10.5929 7.1 10.7655 7.1H12.6695C12.8049 7.1 12.8725 7.21667 12.8725 7.45V7.667C12.8725 7.90033 12.8049 8.017 12.6695 8.017H11.5915V9.172H12.6065C12.7419 9.172 12.8095 9.28867 12.8095 9.522V9.739C12.8095 9.97233 12.7419 10.089 12.6065 10.089H11.5915V11.783C11.5915 11.937 11.4515 12.014 11.1715 12.014H10.9265Z" fill="#523681"/>
</svg>
