<svg width="16" height="16" viewBox="0 0 16 16" fill="none" xmlns="http://www.w3.org/2000/svg">
<g clip-path="url(#clip0_219_161)">
<path d="M5.12858 9.07155C5.64136 8.86643 6.22333 9.11585 6.42844 9.62863C6.75493 10.4449 7.99566 11.4156 9.63213 11.6338C11.164 11.838 12.8987 11.3492 14.1679 9.44532C14.4743 8.98579 15.0951 8.86162 15.5547 9.16797C16.0142 9.47432 16.1384 10.0952 15.832 10.5547C15.5691 10.9492 15.288 11.3012 14.9926 11.6137L15.7449 12.3723C16.1338 12.7644 16.1311 13.3976 15.739 13.7865C15.3468 14.1753 14.7137 14.1727 14.3248 13.7806L13.4115 12.8597C13.1413 13.0122 12.8659 13.1416 12.5871 13.2493L12.9199 14.5778C13.0541 15.1135 12.7286 15.6566 12.1929 15.7908C11.6572 15.925 11.1141 15.5995 10.9799 15.0638L10.6299 13.6666C10.3622 13.6811 10.0958 13.6792 9.83251 13.6622L9.46956 15.0377C9.32865 15.5717 8.78153 15.8903 8.24752 15.7494C7.71351 15.6085 7.39485 15.0614 7.53576 14.5274L7.87375 13.2465C7.58503 13.1409 7.30474 13.0173 7.03664 12.8776L6.15144 13.7628C5.76092 14.1533 5.12775 14.1533 4.73723 13.7628C4.3467 13.3723 4.3467 12.7391 4.73723 12.3486L5.41654 11.6693C5.04925 11.2764 4.75874 10.8395 4.57149 10.3714C4.36638 9.85863 4.61579 9.27666 5.12858 9.07155Z" fill="#7E5DBB"/>
<path d="M1 0C0.447715 0 0 0.447715 0 1V4C0 4.55228 0.447715 5 1 5H5C5.55228 5 6 4.55228 6 4V1C6 0.447715 5.55228 0 5 0H1Z" fill="#B7A9D1"/>
<path d="M0 7C0 6.44772 0.447715 6 1 6H5.19582C5.63995 6 6 6.36004 6 6.80418C6 7.23063 5.75906 7.62047 5.37764 7.81118L5.11945 7.94027C4.41474 8.29263 3.91705 8.95621 3.77611 9.7314L3.13175 13.2754C3.05546 13.695 2.68999 14 2.2635 14H1C0.447715 14 0 13.5523 0 13V7Z" fill="#B7A9D1"/>
<path d="M7 8.27915C7 8.54849 7.10556 8.81028 7.3128 8.98231C8.0889 9.62652 9.01091 9.99988 10 9.99988C10.9891 9.99988 11.9111 9.62652 12.6872 8.98231C12.8944 8.81028 13 8.54849 13 8.27915V1.33333C13 0.596954 12.5523 0 12 0H8C7.44772 0 7 0.596954 7 1.33333V8.27915Z" fill="#B7A9D1"/>
</g>
<defs>
<clipPath id="clip0_219_161">
<rect width="16" height="16" fill="white"/>
</clipPath>
</defs>
</svg>
