<svg width="16" height="16" viewBox="0 0 16 16" fill="none" xmlns="http://www.w3.org/2000/svg">
<path d="M16 11.5C16 13.9844 13.9844 16 11.5 16C9.01562 16 7 13.9844 7 11.5C7 9.01562 9.01562 7 11.5 7C13.9844 7 16 9.01562 16 11.5ZM11 9.47188V10.9719H9.5C9.225 10.9719 9 11.225 9 11.4719C9 11.775 9.225 11.9719 9.5 11.9719H11V13.4719C11 13.775 11.225 13.9719 11.5 13.9719C11.775 13.9719 12 13.775 12 13.4719V11.9719H13.5C13.775 11.9719 14 11.775 14 11.4719C14 11.225 13.775 10.9719 13.5 10.9719H12V9.47188C12 9.225 11.775 8.97188 11.5 8.97188C11.225 8.97188 11 9.225 11 9.47188Z" fill="#D27614"/>
<path d="M10.9125 1.4125L13.5344 4.03438C13.8031 4.30313 14 4.77812 14 5.12187V6.59991C13.2498 6.21635 12.4001 6 11.5 6C10.98 6 10.4769 6.07223 10 6.20719V3.5C10 3.225 9.775 3 9.5 3H2.5C2.22375 3 2 3.225 2 3.5V6.5C2 6.775 2.22375 7 2.5 7H8.33767C7.59461 7.52325 6.98686 8.22584 6.57746 9.04474C5.67594 9.23872 5 10.0406 5 11C5 11.8037 5.4743 12.4968 6.15819 12.8147C6.35811 13.6295 6.73965 14.3731 7.25747 15H2C0.895313 15 0 14.1047 0 13V3C0 1.89531 0.895313 1 2 1H9.87813C10.2219 1 10.6969 1.1975 10.9125 1.4125Z" fill="#F5C591"/>
</svg>
