<svg width="16" height="16" viewBox="0 0 16 16" fill="none" xmlns="http://www.w3.org/2000/svg">
<g clip-path="url(#clip0_219_40)">
<path d="M9.22045 5.55042C9.55802 5.21285 10.112 5.21285 10.4496 5.55042C12.1374 7.23827 12.1374 9.98212 10.4496 11.67L7.38545 14.7341C5.69759 16.422 2.95375 16.422 1.26589 14.7341C-0.421963 13.0463 -0.421963 10.3024 1.26589 8.61452L2.55559 7.32483C2.54693 8.03459 2.65945 8.74436 2.90181 9.42815L2.495 9.83497C1.47363 10.8477 1.47363 12.4923 2.495 13.505C3.50771 14.5264 5.15229 14.5264 6.165 13.505L9.22045 10.4496C10.2418 9.43681 10.2418 7.79223 9.22045 6.77952C8.86557 6.44195 8.86557 5.88799 9.22045 5.55042Z" fill="#7E5DBB"/>
<path d="M6.77954 9.22045C7.13442 9.55802 7.13442 10.112 6.77954 10.4496C6.44197 10.7871 5.88801 10.7871 5.55044 10.4496C3.86258 8.7617 3.86258 6.01785 5.55044 4.33L8.61454 1.26589C10.3024 -0.421963 13.0463 -0.421963 14.7341 1.26589C16.422 2.95375 16.422 5.69759 14.7341 7.38545L13.4444 8.67514C13.4531 7.96538 13.3405 7.25561 13.0982 6.58047L13.505 6.165C14.5264 5.15229 14.5264 3.50771 13.505 2.495C12.4923 1.47363 10.8477 1.47363 9.83499 2.495L6.77954 5.55045C5.75817 6.56316 5.75817 8.20774 6.77954 9.22045Z" fill="#7E5DBB"/>
</g>
<defs>
<clipPath id="clip0_219_40">
<rect width="16" height="16" fill="white"/>
</clipPath>
</defs>
</svg>
