<svg width="16" height="16" viewBox="0 0 16 16" fill="none" xmlns="http://www.w3.org/2000/svg">
<g clip-path="url(#clip0_219_134)">
<path d="M7.60577 13.1437C7.52764 13.2225 7.47423 13.3228 7.45208 13.4315L7.00552 15.6634C6.96645 15.86 7.14098 16.0331 7.33645 15.994L9.56927 15.5474C9.67736 15.5259 9.77786 15.4726 9.85598 15.3938L13.7716 11.4781L11.5216 9.22815L7.60577 13.1437ZM15.6714 7.99061L15.0123 7.33124C14.5723 6.89187 13.8601 6.89187 13.4211 7.33124L12.2298 8.52343L14.4798 10.7734L15.6711 9.58186C16.1089 9.14061 16.1089 8.42811 15.6714 7.99061Z" fill="#0070CC"/>
<path fill-rule="evenodd" clip-rule="evenodd" d="M1.41421 3C1.149 3 0.894643 3.10536 0.707107 3.29289L0.292893 3.70711C0.105357 3.89464 0 4.149 0 4.41421V7C0 7.55228 0.447715 8 1 8H3.58579C3.851 8 4.10536 7.89464 4.29289 7.70711L4.70711 7.29289C4.89464 7.10536 5 6.851 5 6.58579V4C5 3.44772 4.55228 3 4 3H1.41421Z" fill="#80B7E5"/>
<path fill-rule="evenodd" clip-rule="evenodd" d="M7.41421 3C7.149 3 6.89464 3.10536 6.70711 3.29289L6.29289 3.70711C6.10536 3.89464 6 4.149 6 4.41421V7C6 7.55228 6.44772 8 7 8H9.58579C9.851 8 10.1054 7.89464 10.2929 7.70711L10.7071 7.29289C10.8946 7.10536 11 6.851 11 6.58579V4C11 3.44772 10.5523 3 10 3H7.41421Z" fill="#80B7E5"/>
<path d="M3 1C3 0.447715 3.44772 0 4 0H7C7.55228 0 8 0.447715 8 1C8 1.55228 7.55228 2 7 2H4C3.44772 2 3 1.55228 3 1Z" fill="#80B7E5"/>
<path d="M10 0C9.44772 0 9 0.447715 9 1C9 1.55228 9.44772 2 10 2H11.5C11.7761 2 12 2.22386 12 2.5V4C12 4.55228 12.4477 5 13 5C13.5523 5 14 4.55228 14 4V1C14 0.447715 13.5523 0 13 0H10Z" fill="#80B7E5"/>
</g>
<defs>
<clipPath id="clip0_219_134">
<rect width="16" height="16" fill="white"/>
</clipPath>
</defs>
</svg>
