<svg width="16" height="16" viewBox="0 0 16 16" fill="none" xmlns="http://www.w3.org/2000/svg">
<path d="M11.5 7C9.01562 7 7 9.01562 7 11.5C7 13.9844 9.01469 16 11.5 16C13.9853 16 16 13.9853 16 11.5C16 9.01469 13.9844 7 11.5 7ZM13.2656 12.5594C13.4607 12.7544 13.461 13.0709 13.2659 13.2662C13.0709 13.4613 12.7544 13.461 12.5591 13.2659L11.4994 12.2062L10.4397 13.2659C10.2446 13.461 9.92812 13.4613 9.73281 13.2662C9.53749 13.0712 9.53806 12.7547 9.73311 12.5594L10.7928 11.4997L9.73311 10.44C9.53805 10.2449 9.53777 9.92842 9.73283 9.7331C9.92789 9.53779 10.2444 9.53835 10.4397 9.73343L11.4994 10.7931L12.5591 9.73343C12.7541 9.53837 13.0706 9.538 13.2656 9.73308C13.4606 9.92817 13.4604 10.2446 13.2654 10.44L12.2057 11.4996L13.2656 12.5594Z" fill="#D27614"/>
<path d="M10.9125 1.4125L13.5344 4.03438C13.8031 4.30313 14 4.77812 14 5.12187V6.59991C13.2498 6.21635 12.4001 6 11.5 6C10.98 6 10.4769 6.07223 10 6.20719V3.5C10 3.225 9.775 3 9.5 3H2.5C2.22375 3 2 3.225 2 3.5V6.5C2 6.775 2.22375 7 2.5 7H8.33767C7.59461 7.52325 6.98686 8.22584 6.57746 9.04474C5.67594 9.23872 5 10.0406 5 11C5 11.8037 5.4743 12.4968 6.15819 12.8147C6.35811 13.6295 6.73965 14.3731 7.25747 15H2C0.895313 15 0 14.1047 0 13V3C0 1.89531 0.895313 1 2 1H9.87813C10.2219 1 10.6969 1.1975 10.9125 1.4125Z" fill="#F5C591"/>
</svg>
