<svg width="16" height="16" viewBox="0 0 16 16" fill="none" xmlns="http://www.w3.org/2000/svg">
<g clip-path="url(#clip0_219_137)">
<path d="M9 8.5C9 7.67157 9.67157 7 10.5 7H14.5C15.3284 7 16 7.67157 16 8.5V14.5C16 15.3284 15.3284 16 14.5 16H10.5C9.67157 16 9 15.3284 9 14.5V8.5Z" fill="#7E5DBB"/>
<path fill-rule="evenodd" clip-rule="evenodd" d="M1.41421 3C1.149 3 0.894643 3.10536 0.707107 3.29289L0.292893 3.70711C0.105357 3.89464 0 4.149 0 4.41421V7C0 7.55228 0.447715 8 1 8H3.58579C3.851 8 4.10536 7.89464 4.29289 7.70711L4.70711 7.29289C4.89464 7.10536 5 6.851 5 6.58579V4C5 3.44772 4.55228 3 4 3H1.41421Z" fill="#B7A9D1"/>
<path d="M3 1C3 0.447715 3.44772 0 4 0H7C7.55228 0 8 0.447715 8 1C8 1.55228 7.55228 2 7 2H4C3.44772 2 3 1.55228 3 1Z" fill="#B7A9D1"/>
<path d="M10 0C9.44772 0 9 0.447715 9 1C9 1.55228 9.44772 2 10 2H11.5C11.7761 2 12 2.22386 12 2.5V4C12 4.55228 12.4477 5 13 5C13.5523 5 14 4.55228 14 4V1C14 0.447715 13.5523 0 13 0H10Z" fill="#B7A9D1"/>
<path d="M6.70711 3.29289C6.89464 3.10536 7.149 3 7.41421 3H10C10.5523 3 11 3.44772 11 4V5.5C11 5.77614 10.7761 6 10.5 6C9.57888 6 8.77411 6.49816 8.34041 7.23976C8.10031 7.65031 7.7082 8 7.2326 8H7C6.44772 8 6 7.55228 6 7V4.41421C6 4.149 6.10536 3.89464 6.29289 3.70711L6.70711 3.29289Z" fill="#B7A9D1"/>
</g>
<defs>
<clipPath id="clip0_219_137">
<rect width="16" height="16" fill="white"/>
</clipPath>
</defs>
</svg>
