<svg width="16" height="16" viewBox="0 0 16 16" fill="none" xmlns="http://www.w3.org/2000/svg">
<path fill-rule="evenodd" clip-rule="evenodd" d="M11.9125 1.4125L14.5344 4.03438C14.8031 4.30313 15 4.77812 15 5.12187V13C15 14.1047 14.1047 15 13 15H3C1.89531 15 1 14.1047 1 13V3C1 1.89531 1.89531 1 3 1H10.8781C11.2219 1 11.6969 1.1975 11.9125 1.4125ZM6 11C6 12.1044 6.89563 13 8 13C9.10437 13 10 12.1044 10 11C10 9.89563 9.10437 9 8 9C6.89563 9 6 9.89563 6 11ZM10.5 7C10.775 7 11 6.775 11 6.5V3.5C11 3.225 10.775 3 10.5 3H3.5C3.22375 3 3 3.225 3 3.5V6.5C3 6.775 3.22375 7 3.5 7H10.5Z" fill="white"/>
</svg>
