<svg width="16" height="16" viewBox="0 0 16 16" fill="none" xmlns="http://www.w3.org/2000/svg">
<path d="M14.6531 1.00342C15.0866 1.00342 15.5025 1.33998 15.5025 1.84842V6.40779C15.5025 6.73873 15.2343 7.00686 14.9035 7.00686H10.3503C9.84157 7.00686 9.5047 6.59061 9.5047 6.15686C9.5047 5.94954 9.58161 5.73811 9.75345 5.56623L14.0378 1.25373C14.2344 1.08029 14.4469 1.00342 14.6531 1.00342Z" fill="#D27614"/>
<path d="M11.5938 11.8C12.1713 11.8 12.5928 12.27 12.5928 12.7987C12.5928 13.8937 10.0431 14.999 7.99907 14.999C4.14282 14.999 1.0022 11.8584 1.0022 8.00215C1.0022 4.1459 4.14282 1.03027 7.99907 1.03027C9.70532 1.03027 11.3209 1.67871 12.5772 2.76871L11.1634 4.1834C10.2816 3.46027 9.16813 3.0384 7.99782 3.0384C5.24501 3.0384 3.00407 5.27871 3.00407 8.03215C3.00407 10.7856 5.24376 12.9968 7.99688 12.9968C10.2813 12.9968 10.7906 11.8 11.5938 11.8Z" fill="#D27614"/>
</svg>
