<svg width="16" height="16" viewBox="0 0 16 16" fill="none" xmlns="http://www.w3.org/2000/svg">
<g clip-path="url(#clip0_219_211)">
<path d="M7.79375 0.792856C8.18437 0.402544 8.81563 0.402544 9.20625 0.792856C9.59688 1.18348 9.59688 1.81661 9.20625 2.20723L8.41562 2.97192H13C14.6562 2.97192 16 4.31567 16 5.97192V6.97192C16 7.55317 15.5531 7.97192 15 7.97192C14.4469 7.97192 14 7.55317 14 6.97192V5.97192C14 5.44692 13.5531 4.97192 13 4.97192H8.41562L9.20625 5.79379C9.59688 6.18442 9.59688 6.81567 9.20625 7.20629C8.81563 7.59692 8.18437 7.59692 7.79375 7.20629L5.29375 4.70629C4.90312 4.31567 4.90312 3.68442 5.29375 3.29379L7.79375 0.792856ZM4 4.00004C4 5.10317 3.10469 6.00004 2 6.00004C0.895313 6.00004 0 5.10317 0 4.00004C0 2.89536 0.895313 2.00004 2 2.00004C3.10469 2.00004 4 2.89536 4 4.00004Z" fill="#0070CC"/>
<path d="M10.7063 13.2067C11.0969 12.8161 11.0969 12.1848 10.7063 11.7941L8.20625 9.29383C7.81563 8.90317 7.18437 8.90317 6.79375 9.29383C6.40312 9.6845 6.40312 10.3158 6.79375 10.7065L7.58437 11.5003H3C2.44781 11.5003 2 11.0534 2 10.5002V9.5001C2 8.94692 1.55219 8.5 1 8.5C0.447812 8.5 0 8.94692 0 9.5001V10.5002C0 12.1848 1.34312 13.5005 3 13.5005H7.58437L6.79375 14.2944C6.40312 14.685 6.40312 15.3163 6.79375 15.707C7.18437 16.0977 7.81563 16.0977 8.20625 15.707L10.7063 13.2067ZM12 12.5004C12 13.6037 12.8969 14.5288 14 14.5288C15.1031 14.5288 16 13.6037 16 12.5004C16 11.3972 15.1031 10.5002 14 10.5002C12.8969 10.5002 12 11.3972 12 12.5004Z" fill="#80B7E5"/>
</g>
<defs>
<clipPath id="clip0_219_211">
<rect width="16" height="16" fill="white"/>
</clipPath>
</defs>
</svg>
