<svg width="16" height="16" viewBox="0 0 16 16" fill="none" xmlns="http://www.w3.org/2000/svg">
<path d="M2 2C2 0.895313 2.89531 0 4 0H9V5H14V14C14 15.1031 13.1031 16 12 16H4C2.89531 16 2 15.1031 2 14V2Z" fill="#87BD9B"/>
<path d="M9 0V5H14L9 0Z" fill="#0A4D21"/>
<path d="M4.89 12.056C4.22733 12.056 3.74667 11.853 3.448 11.447C3.14933 11.0363 3 10.3993 3 9.53601C3 8.70067 3.154 8.07767 3.462 7.66701C3.77467 7.25167 4.26233 7.04401 4.925 7.04401C5.05567 7.04401 5.177 7.05334 5.289 7.07201C5.401 7.08601 5.48733 7.10234 5.548 7.12101C5.632 7.14434 5.688 7.17934 5.716 7.22601C5.74867 7.26801 5.765 7.32634 5.765 7.40101C5.765 7.48967 5.75567 7.58534 5.737 7.68801C5.723 7.78601 5.69733 7.87234 5.66 7.94701C5.62733 8.01701 5.58067 8.05201 5.52 8.05201C5.47333 8.05201 5.401 8.04267 5.303 8.02401C5.205 8.00067 5.09533 7.98901 4.974 7.98901C4.67533 7.98901 4.45833 8.11267 4.323 8.36001C4.18767 8.60267 4.12 8.99701 4.12 9.54301C4.12 10.0937 4.19 10.4927 4.33 10.74C4.47 10.9827 4.69633 11.104 5.009 11.104C5.163 11.104 5.28433 11.0923 5.373 11.069C5.46167 11.041 5.53633 11.027 5.597 11.027C5.653 11.027 5.69733 11.0597 5.73 11.125C5.76733 11.1903 5.79533 11.2697 5.814 11.363C5.83267 11.4563 5.842 11.5497 5.842 11.643C5.842 11.713 5.828 11.7737 5.8 11.825C5.772 11.8763 5.71367 11.9183 5.625 11.951C5.555 11.9743 5.45233 11.9977 5.317 12.021C5.18633 12.0443 5.044 12.056 4.89 12.056Z" fill="#0A4D21"/>
<path d="M7.57937 12.056C7.42537 12.056 7.2667 12.035 7.10337 11.993C6.9447 11.951 6.80237 11.8997 6.67637 11.839C6.57837 11.7923 6.49437 11.741 6.42437 11.685C6.35437 11.6243 6.31937 11.559 6.31937 11.489C6.31937 11.4423 6.3287 11.3723 6.34737 11.279C6.36603 11.181 6.39637 11.09 6.43837 11.006C6.48503 10.922 6.54103 10.88 6.60637 10.88C6.64837 10.88 6.71603 10.9033 6.80937 10.95C6.90737 10.9967 7.01937 11.0433 7.14537 11.09C7.27603 11.1367 7.4137 11.16 7.55837 11.16C7.68437 11.16 7.80103 11.1297 7.90837 11.069C8.02037 11.0037 8.07637 10.8707 8.07637 10.67C8.07637 10.5393 8.0437 10.432 7.97837 10.348C7.9177 10.264 7.8337 10.1893 7.72637 10.124C7.6237 10.0587 7.5117 9.99334 7.39037 9.92801C7.1757 9.80667 6.9937 9.68067 6.84437 9.55001C6.69503 9.41934 6.5807 9.26767 6.50137 9.09501C6.42203 8.91767 6.38237 8.70301 6.38237 8.45101C6.38237 8.15701 6.44537 7.90501 6.57137 7.69501C6.70203 7.48501 6.87703 7.32401 7.09637 7.21201C7.32037 7.10001 7.57237 7.04401 7.85237 7.04401C8.01103 7.04401 8.17437 7.06267 8.34237 7.10001C8.51037 7.13734 8.6527 7.19334 8.76937 7.26801C8.81137 7.29601 8.8557 7.33101 8.90237 7.37301C8.94903 7.41501 8.97237 7.46634 8.97237 7.52701C8.97237 7.59234 8.96303 7.67401 8.94437 7.77201C8.9257 7.86534 8.8977 7.94934 8.86037 8.02401C8.82303 8.09867 8.77637 8.13601 8.72037 8.13601C8.68303 8.13601 8.62237 8.11967 8.53837 8.08701C8.45437 8.05434 8.3587 8.02167 8.25137 7.98901C8.14403 7.95634 8.03903 7.94001 7.93637 7.94001C7.78703 7.94001 7.6727 7.96567 7.59337 8.01701C7.5187 8.06834 7.46737 8.12901 7.43937 8.19901C7.41603 8.26434 7.40437 8.32734 7.40437 8.38801C7.40437 8.52801 7.4417 8.64001 7.51637 8.72401C7.5957 8.80801 7.69603 8.88034 7.81737 8.94101C7.9387 9.00167 8.0647 9.06934 8.19537 9.14401C8.4007 9.26067 8.5687 9.38434 8.69937 9.51501C8.8347 9.64567 8.93503 9.79734 9.00037 9.97001C9.07037 10.138 9.10537 10.3457 9.10537 10.593C9.10537 10.845 9.0517 11.083 8.94437 11.307C8.83703 11.5263 8.67137 11.706 8.44737 11.846C8.22337 11.986 7.93403 12.056 7.57937 12.056Z" fill="#0A4D21"/>
<path d="M10.6798 11.958C10.7545 11.9953 10.8572 12.014 10.9878 12.014H11.5128C11.6342 12.014 11.7322 11.9953 11.8068 11.958C11.8815 11.9207 11.9305 11.8507 11.9538 11.748L12.9618 7.43601C12.9758 7.37534 12.9828 7.33567 12.9828 7.31701C12.9875 7.29367 12.9898 7.27267 12.9898 7.25401C12.9898 7.20267 12.9665 7.16301 12.9198 7.13501C12.8732 7.10234 12.7962 7.08601 12.6888 7.08601H12.3108C12.2175 7.08601 12.1358 7.09767 12.0658 7.12101C11.9958 7.14434 11.9538 7.19334 11.9398 7.26801L11.2748 10.957H11.2468L10.5538 7.26801C10.5398 7.19334 10.4978 7.14434 10.4278 7.12101C10.3578 7.09767 10.2738 7.08601 10.1758 7.08601H9.80482C9.69749 7.08601 9.62049 7.10234 9.57382 7.13501C9.52715 7.16301 9.50382 7.20267 9.50382 7.25401C9.50382 7.27267 9.50615 7.29367 9.51082 7.31701C9.51082 7.33567 9.51782 7.37534 9.53182 7.43601L10.5398 11.748C10.5632 11.8507 10.6098 11.9207 10.6798 11.958Z" fill="#0A4D21"/>
</svg>
