<svg width="16" height="16" viewBox="0 0 16 16" fill="none" xmlns="http://www.w3.org/2000/svg">
<g clip-path="url(#clip0_219_131)">
<path d="M11.5 16C9.01562 16 7 13.9844 7 11.5C7 9.01562 9.01562 7 11.5 7C13.9844 7 16 9.01562 16 11.5C16 13.9844 13.9844 16 11.5 16ZM13.5 11H12V9.5C12 9.225 11.775 9 11.5 9C11.225 9 11 9.225 11 9.5V11H9.5C9.225 11 9 11.225 9 11.5C9 11.775 9.225 12 9.5 12H11V13.5C11 13.775 11.225 14 11.5 14C11.775 14 12 13.775 12 13.5V12H13.5C13.775 12 14 11.775 14 11.5C14 11.225 13.775 11 13.5 11Z" fill="#D27614"/>
<path fill-rule="evenodd" clip-rule="evenodd" d="M1.41421 3C1.149 3 0.894643 3.10536 0.707107 3.29289L0.292893 3.70711C0.105357 3.89464 0 4.149 0 4.41421V7C0 7.55228 0.447715 8 1 8H3.58579C3.851 8 4.10536 7.89464 4.29289 7.70711L4.70711 7.29289C4.89464 7.10536 5 6.851 5 6.58579V4C5 3.44772 4.55228 3 4 3H1.41421Z" fill="#EEA14F"/>
<path d="M6.70711 3.29289C6.89464 3.10536 7.149 3 7.41421 3H10C10.5523 3 11 3.44772 11 4V5.10848C11 5.62599 10.6012 6.0483 10.1007 6.1796C9.0548 6.45393 8.13051 7.02848 7.42547 7.80559C7.31604 7.9262 7.16286 8 7 8C6.44772 8 6 7.55228 6 7V4.41421C6 4.149 6.10536 3.89464 6.29289 3.70711L6.70711 3.29289Z" fill="#EEA14F"/>
<path d="M3 1C3 0.447715 3.44772 0 4 0H7C7.55228 0 8 0.447715 8 1C8 1.55228 7.55228 2 7 2H4C3.44772 2 3 1.55228 3 1Z" fill="#EEA14F"/>
<path d="M10 0C9.44772 0 9 0.447715 9 1C9 1.55228 9.44772 2 10 2H11.5C11.7761 2 12 2.22386 12 2.5V4C12 4.55228 12.4477 5 13 5C13.5523 5 14 4.55228 14 4V1C14 0.447715 13.5523 0 13 0H10Z" fill="#EEA14F"/>
</g>
<defs>
<clipPath id="clip0_219_131">
<rect width="16" height="16" fill="white"/>
</clipPath>
</defs>
</svg>
