<svg width="16" height="16" viewBox="0 0 16 16" fill="none" xmlns="http://www.w3.org/2000/svg">
<path d="M2 2C2 0.895313 2.89531 0 4 0H9V5H14V14C14 15.1031 13.1031 16 12 16H4C2.89531 16 2 15.1031 2 14V2Z" fill="#B7A9D1"/>
<path d="M8.99997 5V0L14 5H8.99997Z" fill="#523681"/>
<path d="M4.48212 12.014C4.20212 12.014 4.06212 11.937 4.06212 11.783V8.017H3.27812C3.13812 8.017 3.06812 7.90033 3.06812 7.667V7.45C3.06812 7.21667 3.13812 7.1 3.27812 7.1H5.93112C6.07112 7.1 6.14112 7.21667 6.14112 7.45V7.667C6.14112 7.90033 6.07112 8.017 5.93112 8.017H5.14712V11.783C5.14712 11.937 5.00712 12.014 4.72712 12.014H4.48212Z" fill="#523681"/>
<path d="M6.71129 12.014C6.48729 12.014 6.37529 11.9673 6.37529 11.874C6.37529 11.8507 6.37995 11.825 6.38929 11.797C6.39862 11.769 6.41029 11.7387 6.42429 11.706L7.36929 9.445L6.55729 7.394C6.53395 7.33333 6.52229 7.28667 6.52229 7.254C6.52229 7.20267 6.54562 7.163 6.59229 7.135C6.64362 7.10233 6.72762 7.086 6.84429 7.086H7.18729C7.28062 7.086 7.36229 7.09767 7.43229 7.121C7.50229 7.13967 7.55129 7.19333 7.57929 7.282L8.05529 8.822L8.58729 7.226C8.61062 7.16067 8.65495 7.121 8.72029 7.107C8.79029 7.093 8.87662 7.086 8.97929 7.086H9.29429C9.49962 7.086 9.60229 7.13033 9.60229 7.219C9.60229 7.25167 9.58362 7.31 9.54629 7.394L8.69929 9.459L9.58829 11.706C9.61629 11.776 9.63029 11.832 9.63029 11.874C9.63029 11.9673 9.52062 12.014 9.30129 12.014H8.98629C8.84629 12.014 8.75062 12.0023 8.69929 11.979C8.64795 11.951 8.60829 11.8973 8.58029 11.818L8.02729 10.145L7.41829 11.811C7.38562 11.895 7.34362 11.951 7.29229 11.979C7.24095 12.0023 7.14762 12.014 7.01229 12.014H6.71129Z" fill="#523681"/>
<path d="M11.2697 12.014C10.9897 12.014 10.8497 11.937 10.8497 11.783V8.017H10.0657C9.92565 8.017 9.85565 7.90033 9.85565 7.667V7.45C9.85565 7.21667 9.92565 7.1 10.0657 7.1H12.7187C12.8587 7.1 12.9287 7.21667 12.9287 7.45V7.667C12.9287 7.90033 12.8587 8.017 12.7187 8.017H11.9347V11.783C11.9347 11.937 11.7947 12.014 11.5147 12.014H11.2697Z" fill="#523681"/>
</svg>
