<svg width="16" height="16" viewBox="0 0 16 16" fill="none" xmlns="http://www.w3.org/2000/svg">
<g clip-path="url(#clip0_219_57)">
<path fill-rule="evenodd" clip-rule="evenodd" d="M8.08439 1.79273L4.69064 5.19055L0.792828 9.0843C0.011847 9.86555 0.011847 11.1343 0.792828 11.9156L3.29377 14.4156C3.66877 14.7906 4.17814 14.9999 4.70627 14.9999H15C15.5531 14.9999 16 14.5531 16 13.9999C16 13.4468 15.5531 12.9999 15 12.9999H11.1219L11.8094 12.3093L15.2063 8.91555C15.9875 8.1343 15.9875 6.86555 15.2063 6.0843L10.9156 1.79273C10.1344 1.0118 8.86564 1.0118 8.08439 1.79273ZM10.3969 10.8968L8.29377 12.9999H4.70627L2.2072 10.4999L6.10314 6.60305L10.3969 10.8968Z" fill="#D27614"/>
</g>
<defs>
<clipPath id="clip0_219_57">
<rect width="16" height="16" fill="white"/>
</clipPath>
</defs>
</svg>
