<svg width="16" height="16" viewBox="0 0 16 16" fill="none" xmlns="http://www.w3.org/2000/svg">
<path d="M16 11.5C16 13.9844 13.9844 16 11.5 16C9.01562 16 7 13.9844 7 11.5C7 9.01562 9.01562 7 11.5 7C13.9844 7 16 9.01562 16 11.5ZM11 9.47188V10.9719H9.5C9.225 10.9719 9 11.225 9 11.4719C9 11.775 9.225 11.9719 9.5 11.9719H11V13.4719C11 13.775 11.225 13.9719 11.5 13.9719C11.775 13.9719 12 13.775 12 13.4719V11.9719H13.5C13.775 11.9719 14 11.775 14 11.4719C14 11.225 13.775 10.9719 13.5 10.9719H12V9.47188C12 9.225 11.775 8.97188 11.5 8.97188C11.225 8.97188 11 9.225 11 9.47188Z" fill="#0F7B38"/>
<path d="M0 1C0 0.447715 0.447715 0 1 0H5C5.55228 0 6 0.447715 6 1V7C6 7.55228 5.55228 8 5 8H1C0.447715 8 0 7.55228 0 7V1Z" fill="#87BD9B"/>
<path d="M0 10C0 9.44771 0.447715 9 1 9H5C5.55228 9 6 9.44771 6 10V13C6 13.5523 5.55228 14 5 14H1C0.447715 14 0 13.5523 0 13V10Z" fill="#87BD9B"/>
<path d="M8 0C7.44772 0 7 0.447715 7 1V5C7 5.55228 7.44772 6 8 6H12C12.5523 6 13 5.55228 13 5V1C13 0.447715 12.5523 0 12 0H8Z" fill="#87BD9B"/>
</svg>
