<svg width="16" height="16" viewBox="0 0 16 16" fill="none" xmlns="http://www.w3.org/2000/svg">
<g clip-path="url(#clip0_219_146)">
<path fill-rule="evenodd" clip-rule="evenodd" d="M7 8C7 7.44772 7.44772 7 8 7H13.5858C13.851 7 14.1054 7.10536 14.2929 7.29289L15.7071 8.70711C15.8946 8.89464 16 9.149 16 9.41421V15C16 15.5523 15.5523 16 15 16H8C7.44772 16 7 15.5523 7 15V8ZM13.5 13C13.5 14.1046 12.6046 15 11.5 15C10.3954 15 9.5 14.1046 9.5 13C9.5 11.8954 10.3954 11 11.5 11C12.6046 11 13.5 11.8954 13.5 13ZM13 8H8V10H13V8Z" fill="#0F7B38"/>
<path fill-rule="evenodd" clip-rule="evenodd" d="M1.41421 3C1.149 3 0.894643 3.10536 0.707107 3.29289L0.292893 3.70711C0.105357 3.89464 0 4.149 0 4.41421V7C0 7.55228 0.447715 8 1 8H3.58579C3.851 8 4.10536 7.89464 4.29289 7.70711L4.70711 7.29289C4.89464 7.10536 5 6.851 5 6.58579V4C5 3.44772 4.55228 3 4 3H1.41421Z" fill="#87BD9B"/>
<path d="M3 1C3 0.447715 3.44772 0 4 0H7C7.55228 0 8 0.447715 8 1C8 1.55228 7.55228 2 7 2H4C3.44772 2 3 1.55228 3 1Z" fill="#87BD9B"/>
<path d="M10 0C9.44772 0 9 0.447715 9 1C9 1.55228 9.44772 2 10 2H11.5C11.7761 2 12 2.22386 12 2.5V4C12 4.55228 12.4477 5 13 5C13.5523 5 14 4.55228 14 4V1C14 0.447715 13.5523 0 13 0H10Z" fill="#87BD9B"/>
<path d="M6.70711 3.29289C6.89464 3.10536 7.149 3 7.41421 3H10C10.5523 3 11 3.44772 11 4V5C11 5.55228 10.5523 6 10 6H8C7.25048 6 6.59726 6.4123 6.25477 7.02246C6.18257 7.15108 6 7.1475 6 7V4.41421C6 4.149 6.10536 3.89464 6.29289 3.70711L6.70711 3.29289Z" fill="#87BD9B"/>
</g>
<defs>
<clipPath id="clip0_219_146">
<rect width="16" height="16" fill="white"/>
</clipPath>
</defs>
</svg>
