<svg width="16" height="16" viewBox="0 0 16 16" fill="none" xmlns="http://www.w3.org/2000/svg">
<g clip-path="url(#clip0_219_143)">
<path d="M16 11.7071C16 11.3166 15.6834 11 15.2929 11H12.7071C12.3166 11 12 11.3166 12 11.7071C12 11.8946 12.0745 12.0745 12.2071 12.2071L13.2929 13.2929C13.6834 13.6834 14.3166 13.6834 14.7071 13.2929L15.7929 12.2071C15.9255 12.0745 16 11.8946 16 11.7071Z" fill="#D27614"/>
<path d="M10.5 14C9.11929 14 8 12.8807 8 11.5C8 10.1193 9.11929 9 10.5 9C11.8525 9 12.9541 10.074 12.9986 11.4156L13.0345 11.3797L14.7203 13.0654C14.9012 12.5779 15 12.0505 15 11.5C15 9.01472 12.9853 7 10.5 7C8.01472 7 6 9.01472 6 11.5C6 13.9853 8.01472 16 10.5 16C10.9364 16 11.3583 15.9379 11.7574 15.822C12.3735 15.6431 12.4639 14.8781 12.0102 14.4244L11.8767 14.2909C11.5954 14.0097 11.175 13.9405 10.7797 13.9845C10.6878 13.9948 10.5945 14 10.5 14Z" fill="#D27614"/>
<path fill-rule="evenodd" clip-rule="evenodd" d="M1.41421 3C1.149 3 0.894643 3.10536 0.707107 3.29289L0.292893 3.70711C0.105357 3.89464 0 4.149 0 4.41421V7C0 7.55228 0.447715 8 1 8H3.58579C3.851 8 4.10536 7.89464 4.29289 7.70711L4.70711 7.29289C4.89464 7.10536 5 6.851 5 6.58579V4C5 3.44772 4.55228 3 4 3H1.41421Z" fill="#EEA14F"/>
<path d="M3 1C3 0.447715 3.44772 0 4 0H7C7.55228 0 8 0.447715 8 1C8 1.55228 7.55228 2 7 2H4C3.44772 2 3 1.55228 3 1Z" fill="#EEA14F"/>
<path d="M10 0C9.44772 0 9 0.447715 9 1C9 1.55228 9.44772 2 10 2H11.5C11.7761 2 12 2.22386 12 2.5V4C12 4.55228 12.4477 5 13 5C13.5523 5 14 4.55228 14 4V1C14 0.447715 13.5523 0 13 0H10Z" fill="#EEA14F"/>
<path d="M6.70711 3.29289C6.89464 3.10536 7.149 3 7.41421 3H10C10.5523 3 11 3.44772 11 4V5.52175C11 5.79068 10.7689 6 10.5 6C9.20166 6 8.00839 6.44987 7.06757 7.20225C6.67041 7.51986 6.03037 7.56516 6.00162 7.05743C6.00055 7.03842 6 7.01927 6 7V4.41421C6 4.149 6.10536 3.89464 6.29289 3.70711L6.70711 3.29289Z" fill="#EEA14F"/>
</g>
<defs>
<clipPath id="clip0_219_143">
<rect width="16" height="16" fill="white"/>
</clipPath>
</defs>
</svg>
