<svg width="16" height="16" viewBox="0 0 16 16" fill="none" xmlns="http://www.w3.org/2000/svg">
<path fill-rule="evenodd" clip-rule="evenodd" d="M2 0H14C14.5523 0 15 0.447715 15 1C15 1.55228 14.5523 2 14 2H13.5146L9.22892 8.00002L13.5146 14H14C14.5523 14 15 14.4477 15 15C15 15.5523 14.5523 16 14 16H13.0148C13.0055 16.0001 12.9962 16.0001 12.987 16H3.01297C3.00378 16.0001 2.99458 16.0001 2.98537 16H2C1.44772 16 1 15.5523 1 15C1 14.4477 1.44772 14 2 14H2.48541L6.77111 8.00002L2.48539 2H2C1.44772 2 1 1.55228 1 1C1 0.447715 1.44772 0 2 0ZM4.94322 14H11.0568L8.00002 9.72048L4.94322 14ZM8.00002 6.27955L4.94319 2H11.0568L8.00002 6.27955Z" fill="#7E5DBB"/>
</svg>
