<svg width="16" height="16" viewBox="0 0 16 16" fill="none" xmlns="http://www.w3.org/2000/svg">
<g clip-path="url(#clip0_219_238)">
<path d="M8 4C8.55312 4 9 4.44687 9 5V8C9 8.55312 8.55312 9 8 9H4C3.44687 9 3 8.55312 3 8V5C3 4.44687 3.44687 4 4 4H8ZM7 11V10H8C9.10313 10 10 9.10313 10 8V7H12C12.5531 7 13 7.44688 13 8V11C13 11.5531 12.5531 12 12 12H8C7.44688 12 7 11.5531 7 11Z" fill="#D27614"/>
<path fill-rule="evenodd" clip-rule="evenodd" d="M16 1.25C16 1.65895 15.8036 2.02204 15.5 2.25009V13.7499C15.8036 13.978 16 14.341 16 14.75C16 15.4404 15.4404 16 14.75 16C14.341 16 13.978 15.8036 13.7499 15.5H2.25009C2.02204 15.8036 1.65895 16 1.25 16C0.559644 16 0 15.4404 0 14.75C0 14.341 0.196388 13.978 0.5 13.7499V2.25009C0.196388 2.02204 0 1.65895 0 1.25C0 0.559644 0.559644 0 1.25 0C1.65895 0 2.02204 0.196388 2.25009 0.5H13.7499C13.978 0.196388 14.341 0 14.75 0C15.4404 0 16 0.559644 16 1.25ZM2 2.25009V13.7499C2.0947 13.821 2.17896 13.9053 2.25009 14H13.7499C13.821 13.9053 13.9053 13.821 14 13.7499V2.25009C13.9053 2.17896 13.821 2.0947 13.7499 2H2.25009C2.17896 2.0947 2.0947 2.17896 2 2.25009Z" fill="#F5C591"/>
</g>
<defs>
<clipPath id="clip0_219_238">
<rect width="16" height="16" fill="white"/>
</clipPath>
</defs>
</svg>
