<svg width="16" height="16" viewBox="0 0 16 16" fill="none" xmlns="http://www.w3.org/2000/svg">
<path d="M12.2488 2.6187C11.4863 1.85588 10.2488 1.85588 9.48633 2.6187L3.73633 8.3687C2.42102 9.68432 2.42102 11.8156 3.73633 13.1312C5.05195 14.4468 7.1832 14.4468 8.49883 13.1312L13.2488 8.3812C13.5895 8.04057 14.1457 8.04057 14.4863 8.3812C14.827 8.72182 14.827 9.27807 14.4863 9.6187L9.73633 14.3687C7.73633 16.3687 4.49883 16.3687 2.49883 14.3687C0.500391 12.3687 0.500391 9.1312 2.49883 7.1312L8.24883 1.3812C9.6957 -0.0650537 12.0395 -0.0650537 13.4863 1.3812C14.9332 2.82745 14.9332 5.17182 13.4863 6.6187L7.98633 12.1187C7.09258 13.0124 5.64258 13.0124 4.74883 12.1187C3.85477 11.2249 3.85477 9.77495 4.74883 8.8812L9.24883 4.3812C9.58945 4.04057 10.1457 4.04057 10.4863 4.3812C10.827 4.72182 10.827 5.27807 10.4863 5.6187L5.98633 10.1187C5.77695 10.3281 5.77695 10.6718 5.98633 10.8812C6.1957 11.0906 6.53945 11.0906 6.74883 10.8812L12.2488 5.3812C13.0113 4.6187 13.0113 3.3812 12.2488 2.6187Z" fill="#0070CC"/>
</svg>
