<svg width="16" height="16" viewBox="0 0 16 16" fill="none" xmlns="http://www.w3.org/2000/svg">
<g clip-path="url(#clip0_219_232)">
<path d="M8.00003 9.50003L4.99065 9.47191V11.25C4.99065 11.5484 4.8139 11.8185 4.54034 11.9375C4.26678 12.0566 3.94847 12.0025 3.73034 11.7998L0.230341 8.54985C-0.0753154 8.26566 -0.0753154 7.73454 0.230341 7.45016L3.73034 4.20016C3.94859 3.99754 4.2669 3.94332 4.54034 4.06247C4.81253 4.18129 4.99065 4.45316 4.99065 4.75003V6.47191L8.00003 6.50004V9.50003Z" fill="#0070CC"/>
<path d="M8 6.50005H11.0106V4.75005C11.0106 4.45171 11.1874 4.18162 11.4609 4.06255C11.7345 3.94349 12.0528 3.99762 12.2709 4.20024L15.7709 7.45024C16.0766 7.73443 16.0766 8.26555 15.7709 8.54993L12.2709 11.7999C12.0527 12.0026 11.7344 12.0568 11.4609 11.9376C11.1875 11.8185 11.0094 11.5469 11.0094 11.2501V9.50005H8V6.50005Z" fill="#80B7E5"/>
</g>
<defs>
<clipPath id="clip0_219_232">
<rect width="16" height="16" fill="white"/>
</clipPath>
</defs>
</svg>
