<svg width="16" height="16" viewBox="0 0 16 16" fill="none" xmlns="http://www.w3.org/2000/svg">
<g clip-path="url(#clip0_219_347)">
<path d="M6 2H10V1C10 0.447812 10.4469 0 11 0C11.5531 0 12 0.447812 12 1V2H13.5C14.3281 2 15 2.67156 15 3.5V6H1V3.5C1 2.67156 1.67156 2 2.5 2H4V1C4 0.447812 4.44688 0 5 0C5.55312 0 6 0.447812 6 1V2Z" fill="#CC0F1F"/>
<path d="M1 6H15V14.5C15 15.3281 14.3281 16 13.5 16H2.5C1.67156 16 1 15.3281 1 14.5V6ZM3 9.5C3 9.775 3.22375 10 3.5 10H4.5C4.775 10 5 9.775 5 9.5V8.5C5 8.225 4.775 8 4.5 8H3.5C3.22375 8 3 8.225 3 8.5V9.5ZM7.5 8C7.225 8 7 8.225 7 8.5V9.5C7 9.775 7.225 10 7.5 10H8.5C8.775 10 9 9.775 9 9.5V8.5C9 8.225 8.775 8 8.5 8H7.5ZM11 9.5C11 9.775 11.225 10 11.5 10H12.5C12.775 10 13 9.775 13 9.5V8.5C13 8.225 12.775 8 12.5 8H11.5C11.225 8 11 8.225 11 8.5V9.5ZM3.5 12C3.22375 12 3 12.225 3 12.5V13.5C3 13.775 3.22375 14 3.5 14H4.5C4.775 14 5 13.775 5 13.5V12.5C5 12.225 4.775 12 4.5 12H3.5ZM7 13.5C7 13.775 7.225 14 7.5 14H8.5C8.775 14 9 13.775 9 13.5V12.5C9 12.225 8.775 12 8.5 12H7.5C7.225 12 7 12.225 7 12.5V13.5ZM11.5 12C11.225 12 11 12.225 11 12.5V13.5C11 13.775 11.225 14 11.5 14H12.5C12.775 14 13 13.775 13 13.5V12.5C13 12.225 12.775 12 12.5 12H11.5Z" fill="#E8939A"/>
</g>
<defs>
<clipPath id="clip0_219_347">
<rect width="16" height="16" fill="white"/>
</clipPath>
</defs>
</svg>
