<svg width="16" height="16" viewBox="0 0 16 16" fill="none" xmlns="http://www.w3.org/2000/svg">
<g clip-path="url(#clip0_219_260)">
<path d="M14.6262 7.08579H8.03052V0.48951C8.03052 0.223055 8.21061 0 8.5029 0C12.155 0 15.1163 2.96127 15.1163 6.6134C15.1163 6.87912 14.8919 7.08579 14.6262 7.08579ZM15.5415 8.50295C15.8131 8.50295 16.0316 8.73324 15.9961 9.00486C15.7688 10.6553 14.9716 12.1226 13.8143 13.2061C13.6371 13.3479 13.3596 13.3597 13.1884 13.1884L8.5029 8.50295H15.5415Z" fill="#CC0F1F"/>
<path d="M0 8.0306C0 4.44932 2.66012 1.48628 6.08492 1.01123C6.38312 0.974034 6.6134 1.19163 6.6134 1.46473V8.50298L11.2339 13.1235C11.4317 13.3213 11.417 13.6461 11.1896 13.8085C10.0323 14.6322 8.61514 15.1164 7.08579 15.1164C3.17384 15.1164 0 11.9455 0 8.0306Z" fill="#E8939A"/>
</g>
<defs>
<clipPath id="clip0_219_260">
<rect width="16" height="16" fill="white"/>
</clipPath>
</defs>
</svg>
