<svg width="16" height="16" viewBox="0 0 16 16" fill="none" xmlns="http://www.w3.org/2000/svg">
<g clip-path="url(#clip0_219_265)">
<path d="M9.05937 2.40088C9.4125 2.9615 10.0375 3.33338 10.75 3.33338H11.8469C11.9563 3.65213 12 3.9615 12 4.33338C12 6.54275 10.2094 8.33338 8 8.33338C5.79063 8.33338 4 6.54275 4 4.33338C4 4.0865 4.01781 3.899 4.05156 3.68963C4.26563 3.78338 4.50313 3.83338 4.75 3.83338L6 1.83337C7.08125 1.83337 8.50312 3.26025 9.05937 2.40088Z" fill="#B1B4C3"/>
<path d="M4.82948 5.3333L4.9624 3.8333L6.15866 2.8333L11.0133 3.8333L11.1462 5.3333C11.1462 5.3333 11.7738 5.3333 11.9437 4.30841C12.1135 3.28351 11.583 -9.68653e-05 7 -9.68653e-05C6.64094 -0.0109116 6.44042 0.306358 6.30712 0.517272C6.24304 0.61867 6.19449 0.695487 6.15133 0.699449C5.22091 0.784857 3.76585 1.87431 4.03199 4.43652C4.07191 4.82085 4.82948 5.3333 4.82948 5.3333Z" fill="#697586"/>
<path d="M6.5 9.99996L7.53438 11.5923L6.49375 15.1663L5.25938 10.5163C2.84656 10.8625 1 12.7894 1 15.1144C1 15.6019 1.42969 16 1.96 16H14.0406C14.5687 16 15 15.6019 15 15.1144C15 12.7894 13.1531 10.8625 10.7406 10.5163L9.50625 15.1663L8.46562 11.5923L9.5 9.99996H6.5Z" fill="#697586"/>
</g>
<defs>
<clipPath id="clip0_219_265">
<rect width="16" height="16" fill="white"/>
</clipPath>
</defs>
</svg>
