<svg width="16" height="16" viewBox="0 0 16 16" fill="none" xmlns="http://www.w3.org/2000/svg">
<path d="M7 5V0H2C0.895313 0 0 0.895313 0 2V14C0 15.1031 0.895313 16 2 16H5.26756C5.09739 15.7058 5 15.3643 5 15V9C5 7.89543 5.89543 7 7 7H12V5H7Z" fill="#F5C591"/>
<path d="M7 0L12 5H7V0Z" fill="#D27614"/>
<path d="M10.9969 14.0188C10.6917 14.0188 10.3881 13.926 10.1287 13.7409L6 10.6313V15C6 15.5506 6.44937 16 7 16H15C15.5506 16 16 15.5506 16 15V10.6313L11.8812 13.7344C11.6156 13.925 11.3062 14.0188 10.9969 14.0188ZM15 8H7C6.44937 8 6 8.45 6 9V9.38062L10.7188 12.9369C10.8828 13.0531 11.1156 13.0536 11.2897 12.9291L16 9.38125V9C16 8.45 15.55 8 15 8Z" fill="#D27614"/>
</svg>
