<svg width="16" height="16" viewBox="0 0 16 16" fill="none" xmlns="http://www.w3.org/2000/svg">
<path fill-rule="evenodd" clip-rule="evenodd" d="M1.41421 6.5C1.149 6.5 0.894643 6.60536 0.707107 6.79289L0.292893 7.20711C0.105357 7.39464 0 7.649 0 7.91421V11.5C0 12.0523 0.447715 12.5 1 12.5H4.58579C4.851 12.5 5.10536 12.3946 5.29289 12.2071L5.70711 11.7929C5.89464 11.6054 6 11.351 6 11.0858V7.5C6 6.94772 5.55228 6.5 5 6.5H1.41421Z" fill="#CC0F1F"/>
<path fill-rule="evenodd" clip-rule="evenodd" d="M8.41421 6.5C8.149 6.5 7.89464 6.60536 7.70711 6.79289L7.29289 7.20711C7.10536 7.39464 7 7.649 7 7.91421V11.5C7 12.0523 7.44772 12.5 8 12.5H11.5858C11.851 12.5 12.1054 12.3946 12.2929 12.2071L12.7071 11.7929C12.8946 11.6054 13 11.351 13 11.0858V7.5C13 6.94772 12.5523 6.5 12 6.5H8.41421Z" fill="#CC0F1F"/>
<path d="M4 3.5C3.44772 3.5 3 3.94772 3 4.5C3 5.05228 3.44772 5.5 4 5.5H8C8.55228 5.5 9 5.05228 9 4.5C9 3.94772 8.55228 3.5 8 3.5H4Z" fill="#E8939A"/>
<path d="M10 4.5C10 3.94772 10.4477 3.5 11 3.5H15C15.5523 3.5 16 3.94772 16 4.5V8.5C16 9.05228 15.5523 9.5 15 9.5C14.4477 9.5 14 9.05228 14 8.5V6C14 5.72386 13.7761 5.5 13.5 5.5H11C10.4477 5.5 10 5.05228 10 4.5Z" fill="#E8939A"/>
</svg>
