<svg width="16" height="16" viewBox="0 0 16 16" fill="none" xmlns="http://www.w3.org/2000/svg">
<path d="M1 4V14C1 15.1047 1.89531 16 3 16H13C14.1047 16 15 15.1047 15 14V4H1Z" fill="#BFB3D6"/>
<path d="M3 0H13C14.1031 0 15 0.895313 15 2V4H1V2C1 0.895313 1.89531 0 3 0Z" fill="#5F4099"/>
<path d="M4.5 12.5C4.22388 12.5 4 12.7238 4 13C4 13.2761 4.22388 13.5 4.5 13.5H7.5C7.77612 13.5 8 13.2761 8 13C8 12.7238 7.77612 12.5 7.5 12.5H4.5Z" fill="#5F4099"/>
<path d="M4.5 6.5H11.5C11.775 6.5 12 6.725 12 7C12 7.275 11.775 7.5 11.5 7.5H4.5C4.22388 7.5 4 7.27612 4 7C4 6.72381 4.22388 6.5 4.5 6.5Z" fill="#5F4099"/>
<path d="M4.5 9.5C4.22388 9.5 4 9.72381 4 10C4 10.2761 4.22388 10.5 4.5 10.5H11.5C11.7761 10.5 12 10.2761 12 10C12 9.72381 11.7761 9.5 11.5 9.5H4.5Z" fill="#5F4099"/>
</svg>
