<svg width="16" height="16" viewBox="0 0 16 16" fill="none" xmlns="http://www.w3.org/2000/svg">
<path d="M13 0H3C1.89531 0 1 0.895313 1 2V14C1 15.1047 1.89531 16 3 16H13C14.1 16 15 15.1 15 14V2C15 0.9 14.1 0 13 0ZM11.5 13H4.5C4.22813 13 4 12.775 4 12.5C4 12.225 4.22813 12 4.5 12H11.5C11.7734 12 12 12.2266 12 12.5C12 12.7734 11.775 13 11.5 13Z" fill="#BFB3D6"/>
<path d="M7.99139 2V5.75313H11.7445C11.7445 3.67969 10.0658 2 7.99139 2Z" fill="#5F4099"/>
<path d="M4.28825 7.48748C3.34763 5.06873 4.83107 2.7756 6.99138 2.33435V6.7531H11.4101C10.9695 8.91248 8.67575 10.3969 6.257 9.45623C5.35857 9.10873 4.63575 8.38591 4.28825 7.48748Z" fill="#5F4099"/>
</svg>
