<svg width="16" height="16" viewBox="0 0 16 16" fill="none" xmlns="http://www.w3.org/2000/svg">
<path d="M13 0H3C1.89531 0 1 0.895313 1 2V14C1 15.1047 1.89531 16 3 16H13C14.1 16 15 15.1 15 14V2C15 0.9 14.1 0 13 0ZM11.5 13H4.5C4.22813 13 4 12.775 4 12.5C4 12.225 4.22813 12 4.5 12H11.5C11.7734 12 12 12.2266 12 12.5C12 12.7734 11.775 13 11.5 13Z" fill="#BFB3D6"/>
<path d="M10 7.5H6C5.17156 7.5 4.5 8.17188 4.5 9C4.5 9.275 4.72375 9.5 5 9.5H11C11.2761 9.5 11.5 9.27612 11.5 9C11.5 8.17188 10.8281 7.5 10 7.5ZM10 4.5C10 3.39562 9.10469 2.5 8 2.5C6.89531 2.5 6 3.39562 6 4.5C6 5.60437 6.89531 6.5 8 6.5C9.10469 6.5 10 5.60313 10 4.5Z" fill="#5F4099"/>
</svg>
