<svg width="16" height="16" viewBox="0 0 16 16" fill="none" xmlns="http://www.w3.org/2000/svg">
<g clip-path="url(#clip0_219_286)">
<path d="M8.00002 8.5C9.24284 8.5 10.25 7.4925 10.25 6.25C10.25 5.0075 9.24377 4 8.00002 4C6.75627 4 5.75002 5.00625 5.75002 6.25C5.75002 7.49375 6.75627 8.5 8.00002 8.5ZM9.00002 10H7.00002C5.5144 10 4.2644 10.9337 3.7594 12.2409C4.8469 13.3281 6.3469 14 8.00002 14C9.65315 14 11.1532 13.3272 12.2407 12.2409C11.7344 10.9344 10.4844 10 9.00002 10Z" fill="#0070CC"/>
<path d="M8 0C3.58125 0 0 3.58125 0 8C0 12.4187 3.58125 16 8 16C12.4187 16 16 12.4187 16 8C16 3.58125 12.4187 0 8 0ZM8 4C9.24281 4 10.25 5.0075 10.25 6.25C10.25 7.4925 9.24375 8.5 8 8.5C6.7575 8.5 5.75 7.4925 5.75 6.25C5.75 5.0075 6.75625 4 8 4ZM8 14C6.34594 14 4.84688 13.3272 3.75938 12.2409C4.26562 10.9344 5.51562 10 7 10H9C10.4856 10 11.7356 10.9338 12.2406 12.2409C11.1531 13.3281 9.65312 14 8 14Z" fill="#80B7E5"/>
</g>
<defs>
<clipPath id="clip0_219_286">
<rect width="16" height="16" fill="white"/>
</clipPath>
</defs>
</svg>
