<svg width="16" height="16" viewBox="0 0 16 16" fill="none" xmlns="http://www.w3.org/2000/svg">
<path d="M2 9H5V11.5C5 11.7761 4.77614 12 4.5 12H2.5C2.22386 12 2 11.7761 2 11.5V9Z" fill="#F5C591"/>
<path d="M11 9H14V11.5C14 11.7761 13.7761 12 13.5 12H11.5C11.2239 12 11 11.7761 11 11.5V9Z" fill="#F5C591"/>
<path d="M6.5 1H9.5V3.5C9.5 3.77614 9.27614 4 9 4H7C6.72386 4 6.5 3.77614 6.5 3.5V1Z" fill="#F5C591"/>
<path d="M11 9H10C9.44772 9 9 9.44772 9 10V14C9 14.5523 9.44772 15 10 15H15C15.5523 15 16 14.5523 16 14V10C16 9.44772 15.5523 9 15 9H14V11.5C14 11.7761 13.7761 12 13.5 12H11.5C11.2239 12 11 11.7761 11 11.5V9Z" fill="#D27614"/>
<path d="M2 9H1C0.447715 9 0 9.44772 0 10V14C0 14.5523 0.447715 15 1 15H6C6.55228 15 7 14.5523 7 14V10C7 9.44772 6.55228 9 6 9H5V11.5C5 11.7761 4.77614 12 4.5 12H2.5C2.22386 12 2 11.7761 2 11.5V9Z" fill="#D27614"/>
<path d="M6.5 1H5.5C4.94772 1 4.5 1.44772 4.5 2V6C4.5 6.55228 4.94772 7 5.5 7H10.5C11.0523 7 11.5 6.55228 11.5 6V2C11.5 1.44772 11.0523 1 10.5 1H9.5V3.5C9.5 3.77614 9.27614 4 9 4H7C6.72386 4 6.5 3.77614 6.5 3.5V1Z" fill="#D27614"/>
</svg>
