<svg width="16" height="16" viewBox="0 0 16 16" fill="none" xmlns="http://www.w3.org/2000/svg">
<g clip-path="url(#clip0_219_289)">
<path d="M8 0C9.15 0 10.15 0.646875 10.6531 1.59687C11.6812 1.25312 12.8156 1.53 13.6562 2.34313C14.4688 3.15625 14.6906 4.31875 14.4031 5.34688C15.3531 5.85 16 6.85 16 8C16 9.15 15.3531 10.15 14.4031 10.6531C14.7188 11.6812 14.4688 12.8156 13.6562 13.6562C12.8156 14.4688 11.6812 14.6906 10.6531 14.4031C10.15 15.3531 9.15 16 8 16C6.85 16 5.85 15.3531 5.34688 14.4031C4.31875 14.7188 3.15625 14.4688 2.34313 13.6562C1.53 12.8156 1.28125 11.6812 1.59687 10.6531C0.646875 10.15 0 9.15 0 8C0 6.85 0.646875 5.85 1.59687 5.34688C1.25312 4.31875 1.53 3.15625 2.34313 2.34313C3.15625 1.53 4.31875 1.28125 5.34688 1.59687C5.85 0.646875 6.85 0 8 0Z" fill="#87BD9B"/>
<path d="M8.11001 12.3099C7.88334 12.3099 7.77001 12.2433 7.77001 12.1099V11.5799C7.57001 11.5666 7.36668 11.5399 7.16001 11.4999C6.96001 11.4533 6.78001 11.3933 6.62001 11.3199C6.45334 11.2466 6.31001 11.1699 6.19001 11.0899C6.07001 11.0099 6.01001 10.9199 6.01001 10.8199C6.01001 10.6999 6.02668 10.5533 6.06001 10.3799C6.09334 10.1999 6.14334 10.0433 6.21001 9.90995C6.27668 9.76995 6.36334 9.69995 6.47001 9.69995C6.53001 9.69995 6.63001 9.73328 6.77001 9.79995C6.91668 9.86661 7.08334 9.93328 7.27001 9.99995C7.45668 10.0666 7.64668 10.0999 7.84001 10.0999C8.28001 10.0999 8.50001 9.92661 8.50001 9.57995C8.50001 9.41995 8.44001 9.27995 8.32001 9.15995C8.20001 9.03328 7.97334 8.87661 7.64001 8.68995C7.31334 8.50328 7.03668 8.30995 6.81001 8.10995C6.58334 7.90995 6.40668 7.67661 6.28001 7.40995C6.16001 7.14328 6.10001 6.81661 6.10001 6.42995C6.10001 5.88995 6.24668 5.44995 6.54001 5.10995C6.83334 4.76328 7.24334 4.54661 7.77001 4.45995V4.01995C7.77001 3.88661 7.88334 3.81995 8.11001 3.81995H8.16001C8.38668 3.81995 8.50001 3.88661 8.50001 4.01995V4.42995C8.69334 4.44328 8.89001 4.47995 9.09001 4.53995C9.29668 4.59328 9.47001 4.65661 9.61001 4.72995C9.69001 4.76995 9.77334 4.82328 9.86001 4.88995C9.95334 4.94995 10 5.02328 10 5.10995C10 5.22995 9.98001 5.37661 9.94001 5.54995C9.90668 5.71661 9.85668 5.86328 9.79001 5.98995C9.72334 6.11661 9.64001 6.17995 9.54001 6.17995C9.48668 6.17995 9.39668 6.15661 9.27001 6.10995C9.15001 6.05661 9.01334 6.00661 8.86001 5.95995C8.70668 5.90661 8.55668 5.87995 8.41001 5.87995C7.97668 5.87995 7.76001 6.02328 7.76001 6.30995C7.76001 6.39661 7.78001 6.47995 7.82001 6.55995C7.86668 6.63328 7.96334 6.72328 8.11001 6.82995C8.25668 6.93661 8.48334 7.08328 8.79001 7.26995C9.10334 7.45661 9.36334 7.64995 9.57001 7.84995C9.77668 8.04328 9.93001 8.26995 10.03 8.52995C10.1367 8.78995 10.19 9.10995 10.19 9.48995C10.19 9.80328 10.13 10.1033 10.01 10.3899C9.89001 10.6699 9.70334 10.9133 9.45001 11.1199C9.20334 11.3199 8.88668 11.4566 8.50001 11.5299V12.1099C8.50001 12.2433 8.38668 12.3099 8.16001 12.3099H8.11001Z" fill="#0A4D21"/>
</g>
<defs>
<clipPath id="clip0_219_289">
<rect width="16" height="16" fill="white"/>
</clipPath>
</defs>
</svg>
