<svg width="16" height="16" viewBox="0 0 16 16" fill="none" xmlns="http://www.w3.org/2000/svg">
<path d="M2 2.5C2 1.67188 2.5599 1 3.25 1H12.75C13.4401 1 14 1.67188 14 2.5V13H2V2.5Z" fill="#F5C591"/>
<path d="M10.7219 4.96873C11.0125 4.67498 11.4875 4.67498 11.7813 4.96873V4.97185C12.075 5.26248 12.075 5.73748 11.7813 6.03123L7.78438 10.0281C7.49375 10.3218 7.01875 10.3218 6.725 10.0281L4.725 8.0281C4.43125 7.73748 4.43438 7.26248 4.725 6.96873C5.01563 6.67498 5.49063 6.67498 5.78438 6.96873L7.25313 8.43748L10.7219 4.96873Z" fill="#D27614"/>
<path d="M1.5 9C0.671875 9 0 9.67188 0 10.5V13.5C0 14.3281 0.671875 15 1.5 15H14.5C15.3281 15 16 14.3281 16 13.5V10.5C16 9.67188 15.3281 9 14.5 9H14V13H2V9H1.5Z" fill="#D27614"/>
</svg>
