<svg width="16" height="16" viewBox="0 0 16 16" fill="none" xmlns="http://www.w3.org/2000/svg">
<g clip-path="url(#clip0_219_299)">
<path d="M6.9226 0.446857C7.51711 -0.148952 8.48359 -0.148952 9.0781 0.446857L10.5278 1.89625H12.5784C13.4209 1.89625 14.1044 2.57946 14.1044 3.42227V5.47285L15.5541 6.92256C16.1486 7.51707 16.1486 8.48354 15.5541 9.07805L14.1044 10.5278V12.5783C14.1044 13.4208 13.4209 14.1044 12.5784 14.1044H10.5278L9.0781 15.5541C8.48359 16.1486 7.51711 16.1486 6.9226 15.5541L5.47289 14.1044H3.42231C2.57951 14.1044 1.8963 13.4208 1.8963 12.5783V10.5278L0.446903 9.07805C-0.148968 8.48354 -0.148968 7.51707 0.446903 6.92256L1.8963 5.47285V3.42227C1.8963 2.57946 2.57951 1.89625 3.42231 1.89625H5.47289L6.9226 0.446857Z" fill="#F5C591"/>
<path d="M7.74387 9.66056C7.46231 9.66056 7.25795 9.62253 7.13079 9.54648C7.00363 9.47042 6.94005 9.34366 6.94005 9.1662C6.94005 8.82817 7.00363 8.52394 7.13079 8.25352C7.25795 7.9831 7.41235 7.74225 7.59401 7.53099C7.77566 7.31127 7.94823 7.10845 8.11172 6.92253C8.28429 6.72817 8.42507 6.5507 8.53406 6.39014C8.64305 6.22958 8.69755 6.07324 8.69755 5.92113C8.69755 5.59155 8.47956 5.42676 8.0436 5.42676C7.84378 5.42676 7.6485 5.46056 7.45777 5.52817C7.27611 5.58732 7.11717 5.6507 6.98093 5.71831C6.84469 5.78591 6.74024 5.81972 6.66758 5.81972C6.57675 5.81972 6.49046 5.76479 6.40872 5.65493C6.32698 5.53662 6.25431 5.39718 6.19074 5.23662C6.12716 5.06761 6.0772 4.90704 6.04087 4.75493C6.01362 4.60282 6 4.48451 6 4.4C6 4.20563 6.11807 4.04084 6.35422 3.90563C6.59946 3.77042 6.89464 3.66901 7.23978 3.60141C7.59401 3.5338 7.93461 3.5 8.26158 3.5C9.0881 3.5 9.75114 3.68592 10.2507 4.05775C10.7502 4.42113 11 4.9493 11 5.64225C11 6.1831 10.8955 6.60986 10.6866 6.92253C10.4777 7.22676 10.2416 7.50141 9.9782 7.74648C9.74205 7.95775 9.52407 8.17746 9.32425 8.40563C9.13352 8.6338 9.00636 8.89577 8.94278 9.19155C8.90645 9.38591 8.81562 9.51268 8.6703 9.57183C8.52498 9.63099 8.32062 9.66056 8.05722 9.66056H7.74387ZM7.78474 12.5C7.4396 12.5 7.18529 12.4535 7.0218 12.3606C6.86739 12.2676 6.79019 12.1324 6.79019 11.9549V10.9408C6.79019 10.7634 6.86739 10.6282 7.0218 10.5352C7.18529 10.4423 7.4396 10.3958 7.78474 10.3958H8.08447C8.42961 10.3958 8.67938 10.4423 8.83379 10.5352C8.99728 10.6282 9.07902 10.7634 9.07902 10.9408V11.9549C9.07902 12.1324 8.99728 12.2676 8.83379 12.3606C8.67938 12.4535 8.42961 12.5 8.08447 12.5H7.78474Z" fill="#D27614"/>
</g>
<defs>
<clipPath id="clip0_219_299">
<rect width="16" height="16" fill="white"/>
</clipPath>
</defs>
</svg>
