<svg width="16" height="16" viewBox="0 0 16 16" fill="none" xmlns="http://www.w3.org/2000/svg">
<path d="M7.99745 9.45837C9.4327 9.45837 10.575 8.27619 10.575 6.81775C10.575 5.35931 9.41145 4.17712 7.99745 4.17712C6.5622 4.17712 5.41995 5.35931 5.41995 6.81775C5.39745 8.27517 6.56245 9.45837 7.99745 9.45837ZM9.24745 10.2709H6.75245C4.78995 10.2709 3.19995 11.7867 3.19995 13.6554C3.19995 14.0312 3.51745 14.3334 3.90995 14.3334H12.09C12.4825 14.3334 12.8 14.0312 12.8 13.6554C12.8 11.7867 11.21 10.2709 9.24745 10.2709Z" fill="#0070CC"/>
<path d="M3.2 5.39587C4.3045 5.39587 5.2 4.48638 5.2 3.36462C5.2 2.24287 4.305 1.33337 3.2 1.33337C2.0955 1.33337 1.2 2.24287 1.2 3.36462C1.2 4.48638 2.0955 5.39587 3.2 5.39587ZM12.8 5.39587C13.9045 5.39587 14.8 4.48638 14.8 3.36462C14.8 2.24287 13.905 1.33337 12.8 1.33337C11.6955 1.33337 10.8 2.24287 10.8 3.36462C10.8 4.48638 11.695 5.39587 12.8 5.39587ZM13.7975 6.20837H12.2515C11.9315 6.20837 11.6295 6.28549 11.355 6.41759C11.37 6.55115 11.395 6.68064 11.395 6.81775C11.395 7.67367 11.0755 8.44808 10.566 9.05212H15.5585C15.8025 9.05212 16 8.83884 16 8.57732C16 7.2697 15.015 6.20837 13.7975 6.20837ZM4.6375 6.41404C4.365 6.26169 4.065 6.20837 3.7475 6.20837H2.202C0.986 6.20837 0 7.2697 0 8.57732C0 8.83884 0.197175 9.05212 0.4405 9.05212H5.428C4.9185 8.44808 4.599 7.67367 4.599 6.81775C4.5975 6.68064 4.6225 6.54861 4.6375 6.41404Z" fill="#80B7E5"/>
</svg>
