<svg width="16" height="16" viewBox="0 0 16 16" fill="none" xmlns="http://www.w3.org/2000/svg">
<path d="M16 14C16 14.5528 15.5528 15 15 15H11C10.6963 15 10.4091 14.8623 10.2188 14.625L4.51875 6H1C0.447187 6 0 5.55313 0 5C0 4.44687 0.447187 4 1 4H5C5.30372 4 5.59094 4.13769 5.78125 4.375L11.4812 13H15C15.5531 13 16 13.4469 16 14Z" fill="#87BD9B"/>
<path d="M13.5 5.5V7C13.5 7.55312 13.0528 8 12.5 8C11.9472 8 11.5 7.55281 11.5 7V5.5H10C9.44687 5.5 9 5.05281 9 4.5C9 3.94719 9.44719 3.5 10 3.5H11.5V2C11.5 1.44719 11.9472 1 12.5 1C13.0528 1 13.5 1.44719 13.5 2V3.5H15C15.5528 3.5 16 3.94719 16 4.5C16 5.05281 15.5528 5.5 15 5.5H13.5Z" fill="#0F7B38"/>
</svg>
