<svg width="16" height="16" viewBox="0 0 16 16" fill="none" xmlns="http://www.w3.org/2000/svg">
<path d="M15.25 1C15.6656 1 16 1.33594 16 1.75C16 2.16406 15.6656 2.5 15.25 2.5H0.75C0.335938 2.5 0 2.16406 0 1.75C0 1.33594 0.335938 1 0.75 1H15.25ZM15.25 13.5C15.6656 13.5 16 13.8344 16 14.25C16 14.6656 15.6656 15 15.25 15H0.75C0.335938 15 0 14.6656 0 14.25C0 13.8344 0.335938 13.5 0.75 13.5H15.25Z" fill="#0070CC"/>
<path d="M3 6.5C3 5.67188 3.67188 5 4.5 5H11.5C12.3281 5 13 5.67188 13 6.5V9.5C13 10.3281 12.3281 11 11.5 11H4.5C3.67188 11 3 10.3281 3 9.5V6.5Z" fill="#80B7E5"/>
</svg>
