<svg width="16" height="16" viewBox="0 0 16 16" fill="none" xmlns="http://www.w3.org/2000/svg">
<path d="M15.25 1C15.6656 1 16 1.33594 16 1.75C16 2.16406 15.6656 2.5 15.25 2.5H0.75C0.335938 2.5 0 2.16406 0 1.75C0 1.33594 0.335938 1 0.75 1H15.25ZM15.25 5C15.6656 5 16 5.33437 16 5.75C16 6.16563 15.6656 6.5 15.25 6.5H0.75C0.335938 6.5 0 6.16563 0 5.75C0 5.33437 0.335938 5 0.75 5H15.25Z" fill="#0070CC"/>
<path d="M3 10.5C3 9.67188 3.67188 9 4.5 9H11.5C12.3281 9 13 9.67188 13 10.5V13.5C13 14.3281 12.3281 15 11.5 15H4.5C3.67188 15 3 14.3281 3 13.5V10.5Z" fill="#80B7E5"/>
</svg>
