<svg width="16" height="16" viewBox="0 0 16 16" fill="none" xmlns="http://www.w3.org/2000/svg">
<path d="M3.5 8L0.359696 4.41108C0.127813 4.14607 0 3.8059 0 3.45377C0 2.65087 0.650874 2 1.45377 2H9.54623C10.3491 2 11 2.65087 11 3.45377C11 3.8059 10.8722 4.14607 10.6403 4.41108L7.5 8V13C7.5 13.824 6.55924 14.2944 5.9 13.8L3.9 12.3C3.64819 12.1111 3.5 11.8148 3.5 11.5V8Z" fill="#EEA14F"/>
<path d="M12 3C12 2.44772 12.4477 2 13 2H15C15.5523 2 16 2.44772 16 3C16 3.55228 15.5523 4 15 4H13C12.4477 4 12 3.55228 12 3Z" fill="#D27614"/>
<path d="M10 8C10 7.44772 10.4477 7 11 7H15C15.5523 7 16 7.44772 16 8C16 8.55228 15.5523 9 15 9H11C10.4477 9 10 8.55228 10 8Z" fill="#D27614"/>
<path d="M11 12C10.4477 12 10 12.4477 10 13C10 13.5523 10.4477 14 11 14H15C15.5523 14 16 13.5523 16 13C16 12.4477 15.5523 12 15 12H11Z" fill="#D27614"/>
</svg>
