<svg width="16" height="16" viewBox="0 0 16 16" fill="none" xmlns="http://www.w3.org/2000/svg">
<g clip-path="url(#clip0_219_332)">
<path d="M7 9.82831V13.0002H5.5C4.94719 13.0002 4.5 13.4756 4.5 14.0002C4.5 14.5249 4.94719 14.9721 5.5 14.9721H10.5C10.9525 14.9721 11.3343 14.6913 11.4579 14.2862L10.1719 13.0002H9V11.8283L7 9.82831Z" fill="#80B7E5"/>
<path d="M9 10.4141L7 8.41409V5.58567L9 7.58567V10.4141Z" fill="#80B7E5"/>
<path d="M9 6.17145V3.00024H13V4.00024C13 4.55306 13.4472 5.00024 14 5.00024C14.5528 5.00024 15 4.55306 15 4.00024V2.00024C15 1.44774 14.5531 1.00024 14 1.00024H3.82879L5.82879 3.00024H7V4.17145L9 6.17145Z" fill="#80B7E5"/>
<path d="M4.41458 3.00024H3V4.00024C3 4.1237 2.9777 4.24188 2.9369 4.35099L1 2.41409V2.00024C1 1.44743 1.44719 1.00024 2 1.00024H2.41458L4.41458 3.00024Z" fill="#80B7E5"/>
<path d="M0.29689 1.71101C-0.0936344 1.32049 -0.0936348 0.687324 0.296889 0.296799C0.687414 -0.0937248 1.32058 -0.0937248 1.7111 0.296799L15.7031 14.2888C16.0937 14.6794 16.0937 15.3125 15.7031 15.703C15.3126 16.0936 14.6794 16.0936 14.2889 15.703L0.29689 1.71101Z" fill="#0070CC"/>
</g>
<defs>
<clipPath id="clip0_219_332">
<rect width="16" height="16" fill="white"/>
</clipPath>
</defs>
</svg>
