<svg width="16" height="16" viewBox="0 0 16 16" fill="none" xmlns="http://www.w3.org/2000/svg">
<g clip-path="url(#clip0_219_356)">
<path d="M16 11.5C16 13.9844 13.9844 16 11.5 16C9.01562 16 7 13.9844 7 11.5C7 9.01562 9.01562 7 11.5 7C13.9844 7 16 9.01562 16 11.5ZM12.6469 9.64688L11.5 10.7937L10.3531 9.64688C10.1594 9.45 9.84063 9.45 9.64688 9.64688C9.45 9.84063 9.45 10.1594 9.64688 10.3531L10.7937 11.5L9.64688 12.6469C9.45 12.8406 9.45 13.1594 9.64688 13.3531C9.84063 13.55 10.1594 13.55 10.3531 13.3531L11.5 12.2063L12.6469 13.3531C12.8406 13.55 13.1594 13.55 13.3531 13.3531C13.55 13.1594 13.55 12.8406 13.3531 12.6469L12.2063 11.5L13.3531 10.3531C13.55 10.1594 13.55 9.84063 13.3531 9.64688C13.1594 9.45 12.8406 9.45 12.6469 9.64688Z" fill="#697586"/>
<path fill-rule="evenodd" clip-rule="evenodd" d="M14 2C14 0.895313 13.1031 0 12 0H2C0.895313 0 0 0.895313 0 2V12C0 13.1031 0.895313 14 2 14H6.57727C6.26564 13.3904 6.06442 12.7149 6 12V6H12C12.7149 6.06442 13.3904 6.26565 14 6.57729V2ZM2 2H12V4H2V2ZM2 6V12H4V6H2Z" fill="#B1B4C3"/>
</g>
<defs>
<clipPath id="clip0_219_356">
<rect width="16" height="16" fill="white"/>
</clipPath>
</defs>
</svg>
