<svg width="16" height="16" viewBox="0 0 16 16" fill="none" xmlns="http://www.w3.org/2000/svg">
<path d="M7.29375 5.70625C7.4875 5.90313 7.74375 6 8 6C8.25625 6 8.51187 5.90234 8.70687 5.70703L10.7069 3.70703C10.9031 3.5125 11 3.25625 11 3C11 2.46719 10.5709 2 10 2C9.74412 2 9.48813 2.09766 9.29313 2.29297L9 2.58594V1C9 0.447187 8.55281 0 8 0C7.44719 0 7 0.447187 7 1V2.58594L6.70625 2.29312C6.5125 2.09781 6.25625 2 6 2C5.42813 2 5 2.46719 5 3C5 3.25588 5.09766 3.51188 5.29297 3.70688L7.29375 5.70625ZM8.70625 10.2937C8.5125 10.0969 8.25625 10 8 10C7.74375 10 7.48813 10.0974 7.29313 10.2927L5.29313 12.2927C5.09688 12.4875 5 12.7437 5 13C5 13.5328 5.42906 14 6 14C6.25587 14 6.51187 13.9023 6.70687 13.707L7 13.4156V15C7 15.5528 7.44719 16 8 16C8.55281 16 9 15.5528 9 15V13.4141L9.29297 13.707C9.4875 13.9031 9.74375 14 10 14C10.5712 14 11 13.5328 11 13C11 12.7441 10.9023 12.4881 10.707 12.2931L8.70625 10.2937Z" fill="#0070CC"/>
<path d="M2 8.97192H14C14.5528 8.97192 15 8.52505 15 7.97224C15 7.41942 14.5528 6.97192 14 6.97192H2C1.44719 6.97192 1 7.41974 1 7.97224C1 8.52474 1.44719 8.97192 2 8.97192Z" fill="#80B7E5"/>
</svg>
