<svg width="16" height="16" viewBox="0 0 16 16" fill="none" xmlns="http://www.w3.org/2000/svg">
<g clip-path="url(#clip0_219_368)">
<path d="M0.292968 11.293C-0.097656 11.6836 -0.097656 12.3148 0.292968 12.7055L3.29297 15.7063C3.68359 16.0968 4.31484 16.0968 4.70547 15.7063C5.09609 15.3158 5.09609 14.6827 4.70547 14.292L3.41484 13.0273H8.99922C11.2083 13.0273 12.9992 11.2086 12.9992 9.02735V8.02735C12.9992 8.01793 12.9991 8.00855 12.9989 7.99922H13V3.41484L14.2937 4.70547C14.6844 5.0961 15.3156 5.0961 15.7062 4.70547C16.0969 4.31485 16.0969 3.68359 15.7062 3.29297L12.7062 0.292969C12.3156 -0.0976565 11.6844 -0.0976565 11.2937 0.292969L8.29374 3.29297C7.90312 3.68359 7.90312 4.31485 8.29374 4.70547C8.68437 5.0961 9.31562 5.0961 9.70624 4.70547L11 3.41484V7.98561C10.9995 7.99943 10.9992 8.01334 10.9992 8.02735V9.02735C10.9992 10.1023 10.1039 11.0273 8.99922 11.0273H3.41484L4.70547 9.70547C5.09609 9.31485 5.09609 8.6836 4.70547 8.29297C4.31484 7.90235 3.68359 7.90235 3.29297 8.29297L0.292968 11.293Z" fill="#0070CC"/>
</g>
<defs>
<clipPath id="clip0_219_368">
<rect width="16" height="16" fill="white"/>
</clipPath>
</defs>
</svg>
