<svg width="16" height="16" viewBox="0 0 16 16" fill="none" xmlns="http://www.w3.org/2000/svg">
<path d="M5 7.5H3C2.72375 7.5 2.5 7.725 2.5 8V10C2.5 10.2761 2.72387 10.5 3 10.5H5C5.27619 10.5 5.5 10.2761 5.5 10V8C5.5 7.725 5.275 7.5 5 7.5ZM9 7.5H7C6.725 7.5 6.5 7.725 6.5 8V10C6.5 10.2761 6.72388 10.5 7 10.5H9C9.27619 10.5 9.5 10.2761 9.5 10V8C9.5 7.725 9.275 7.5 9 7.5ZM13 7.5H11C10.7239 7.5 10.5 7.72387 10.5 8V10C10.5 10.2761 10.7239 10.5 11 10.5H13C13.2762 10.5 13.5 10.2761 13.5 10V8C13.5 7.725 13.275 7.5 13 7.5Z" fill="#D27614"/>
<path d="M14.5 3H8.5L6.5 1H1.5C0.671875 1 0 1.67188 0 2.5V13.5C0 14.3281 0.671875 15 1.5 15H14.5C15.3281 15 16 14.3281 16 13.5V4.5C16 3.67188 15.3281 3 14.5 3ZM5.5 10C5.5 10.2761 5.27619 10.5 5 10.5H3C2.72388 10.5 2.5 10.2761 2.5 10V8C2.5 7.72388 2.72388 7.5 3 7.5H5C5.27619 7.5 5.5 7.72388 5.5 8V10ZM9.5 10C9.5 10.2761 9.27619 10.5 9 10.5H7C6.72388 10.5 6.5 10.2761 6.5 10V8C6.5 7.72388 6.72388 7.5 7 7.5H9C9.27619 7.5 9.5 7.72388 9.5 8V10ZM13.5 10C13.5 10.2761 13.2762 10.5 13 10.5H11C10.7239 10.5 10.5 10.2761 10.5 10V8C10.5 7.72388 10.7239 7.5 11 7.5H13C13.2762 7.5 13.5 7.72388 13.5 8V10Z" fill="#F5C591"/>
</svg>
