<svg width="16" height="16" viewBox="0 0 16 16" fill="none" xmlns="http://www.w3.org/2000/svg">
<path fill-rule="evenodd" clip-rule="evenodd" d="M2 4.97192H14C14.5528 4.97192 15 4.52505 15 3.97224C15 3.41942 14.5528 2.97192 14 2.97192H2C1.44719 2.97192 1 3.41974 1 3.97224C1 4.52474 1.44719 4.97192 2 4.97192ZM13.5 8.97192H14C14.4829 8.97192 14.8852 8.6309 14.9792 8.17614C14.9335 7.82224 14.8139 7.4916 14.6363 7.20019C14.4635 7.05756 14.2418 6.97192 14 6.97192H10.5208C10.1943 7.39438 10 7.92437 10 8.49994V8.97192H11.5V8.49994C11.5 7.94681 11.9469 7.49994 12.5 7.49994C13.0531 7.49994 13.5 7.94681 13.5 8.49994V8.97192ZM9 8.97192V8.49994C9 7.95203 9.12579 7.43359 9.35007 6.97192H2C1.44719 6.97192 1 7.41974 1 7.97224C1 8.52474 1.44719 8.97192 2 8.97192H9ZM8.00019 10.9719C8.00006 10.9812 8 10.9906 8 10.9999V12.9719H2C1.44719 12.9719 1 12.5247 1 11.9722C1 11.4197 1.44719 10.9719 2 10.9719H8.00019ZM9 12.9719V10.9999C9 10.9906 9.00013 10.9812 9.00038 10.9719H14C14.5528 10.9719 15 11.4194 15 11.9722C15 12.525 14.5528 12.9719 14 12.9719H9Z" fill="#80B7E5"/>
<path d="M10 10V8.5C10 7.11875 11.1188 6 12.5 6C13.8812 6 15 7.11875 15 8.5V10C15.5531 10 16 10.4469 16 11V15C16 15.5531 15.5531 16 15 16H10C9.44687 16 9 15.5531 9 15V11C9 10.4469 9.44687 10 10 10ZM11.5 10H13.5V8.5C13.5 7.94687 13.0531 7.5 12.5 7.5C11.9469 7.5 11.5 7.94687 11.5 8.5V10Z" fill="#0070CC"/>
</svg>
