<svg width="16" height="16" viewBox="0 0 16 16" fill="none" xmlns="http://www.w3.org/2000/svg">
<g clip-path="url(#clip0_219_374)">
<path d="M15.2219 0H10.9719C10.5675 0 10.2022 0.243656 10.0481 0.617188C9.89286 0.99125 9.9788 1.42094 10.265 1.70687L11.2043 2.64625L8.76495 5.08594C8.37433 5.47656 8.37433 6.10969 8.76495 6.50031L9.47183 7.20719C9.86245 7.59781 10.4956 7.59781 10.8862 7.20719L13.3256 4.7675L14.265 5.70687C14.5511 5.99253 14.9796 6.07688 15.3546 5.92366C15.7563 5.76875 16 5.40313 16 4.97188V0.721875C16 0.335625 15.6656 0 15.2219 0Z" fill="#CC0F1F"/>
<path d="M6.50001 8.79371C6.10938 8.40308 5.47626 8.40308 5.08563 8.79365L2.64626 11.2333L1.70688 10.294C1.51548 10.1026 1.25969 10.0012 0.999695 10.0012C0.870789 10.0012 0.740976 10.0259 0.616882 10.0772C0.24282 10.232 -0.000305176 10.5966 -0.000305176 11.0009V15.2228C4.79492e-05 15.6656 0.335945 16 0.750007 16H5.00001C5.40438 16 5.76969 15.7563 5.92376 15.3828C6.07904 15.0087 5.9931 14.579 5.70694 14.2931L4.76757 13.3537L7.20694 10.914C7.59757 10.5237 7.59757 9.89058 7.20701 9.49996L6.50001 8.79371Z" fill="#E8939A"/>
</g>
<defs>
<clipPath id="clip0_219_374">
<rect width="16" height="16" fill="white"/>
</clipPath>
</defs>
</svg>
