<svg width="16" height="16" viewBox="0 0 16 16" fill="none" xmlns="http://www.w3.org/2000/svg">
<path fill-rule="evenodd" clip-rule="evenodd" d="M10 0L14 4V14.5C14 15.3284 13.3284 16 12.5 16H3.5C2.67156 16 2 15.3281 2 14.5V1.5C2 0.671562 2.67156 0 3.5 0H10ZM9.5 13C9.22386 13 9 13.2239 9 13.5C9 13.7761 9.22386 14 9.5 14H11.5C11.7761 14 12 13.7761 12 13.5C12 13.2239 11.7761 13 11.5 13H9.5ZM4 2.5C4 2.22386 4.22386 2 4.5 2H6.5C6.77614 2 7 2.22386 7 2.5C7 2.77614 6.77614 3 6.5 3H4.5C4.22386 3 4 2.77614 4 2.5ZM4.5 4C4.22386 4 4 4.22386 4 4.5C4 4.77614 4.22386 5 4.5 5H6.5C6.77614 5 7 4.77614 7 4.5C7 4.22386 6.77614 4 6.5 4H4.5Z" fill="#F5C591"/>
<path fill-rule="evenodd" clip-rule="evenodd" d="M5.5 8.5V9.5H10.5V8.5H5.5ZM5 7C4.44772 7 4 7.44772 4 8V10C4 10.5523 4.44772 11 5 11H11C11.5523 11 12 10.5523 12 10V8C12 7.44772 11.5523 7 11 7H5Z" fill="#D27614"/>
</svg>
