<svg width="16" height="16" viewBox="0 0 16 16" fill="none" xmlns="http://www.w3.org/2000/svg">
<path fill-rule="evenodd" clip-rule="evenodd" d="M1.77783 10.7778V2.77783H14.2223V10.7778H1.77783ZM7.25006 4.69231C7.25006 4.30865 7.58444 4 8.00006 4C8.41569 4 8.75006 4.30865 8.75006 4.69231V9.30769C8.75006 9.69135 8.41569 10 8.00006 10C7.58444 10 7.25006 9.69135 7.25006 9.30769V4.69231ZM11.0001 5.84616C10.5844 5.84616 10.2501 6.15481 10.2501 6.53847V9.3077C10.2501 9.69135 10.5844 10 11.0001 10C11.4157 10 11.7501 9.69135 11.7501 9.3077V6.53847C11.7501 6.15481 11.4157 5.84616 11.0001 5.84616ZM5.00006 6.76923C4.58444 6.76923 4.25006 7.07788 4.25006 7.46153V9.30769C4.25006 9.69134 4.58444 10 5.00006 10C5.41569 10 5.75006 9.69134 5.75006 9.30769V7.46153C5.75006 7.07788 5.41569 6.76923 5.00006 6.76923Z" fill="#0070CC"/>
<path d="M9.77783 13.8889H11.7778C12.1473 13.8889 12.4445 14.1876 12.4445 14.5556C12.4445 14.9237 12.1459 15.2223 11.7778 15.2223H4.22228C3.85561 15.2223 3.55561 14.9223 3.55561 14.5556C3.55561 14.1889 3.85561 13.8889 4.22228 13.8889H6.22228L6.66672 12.5556H9.33339L9.77783 13.8889Z" fill="#0070CC"/>
<path d="M14.6667 1H1.33333C0.597222 1 0 1.59722 0 2.33333V11.2222C0 11.9583 0.597222 12.5556 1.33333 12.5556H14.6667C15.4028 12.5556 16 11.9583 16 11.2222V2.33333C16 1.59722 15.4028 1 14.6667 1ZM14.2222 10.7778H1.77778V2.77778H14.2222V10.7778Z" fill="#80B7E5"/>
</svg>
