<svg width="16" height="16" viewBox="0 0 16 16" fill="none" xmlns="http://www.w3.org/2000/svg">
<path d="M0 2C0 1.44772 0.447715 1 1 1H3C3.55228 1 4 1.44772 4 2V14C4 14.5523 3.55228 15 3 15H1C0.447715 15 0 14.5523 0 14V2Z" fill="#80B7E5"/>
<path d="M6 2C6 1.44772 6.44772 1 7 1H9C9.55228 1 10 1.44772 10 2V14C10 14.5523 9.55228 15 9 15H7C6.44772 15 6 14.5523 6 14V2Z" fill="#80B7E5"/>
<path d="M12 2C12 1.44772 12.4477 1 13 1H15C15.5523 1 16 1.44772 16 2V14C16 14.5523 15.5523 15 15 15H13C12.4477 15 12 14.5523 12 14V2Z" fill="#80B7E5"/>
<path d="M0 2C0 1.44772 0.447715 1 1 1H3C3.55228 1 4 1.44772 4 2V3H0V2Z" fill="#0070CC"/>
<path d="M6 2C6 1.44772 6.44772 1 7 1H9C9.55228 1 10 1.44772 10 2V3H6V2Z" fill="#0070CC"/>
<path d="M12 2C12 1.44772 12.4477 1 13 1H15C15.5523 1 16 1.44772 16 2V3H12V2Z" fill="#0070CC"/>
</svg>
