<svg width="16" height="16" viewBox="0 0 16 16" fill="none" xmlns="http://www.w3.org/2000/svg">
<g clip-path="url(#clip0_219_106)">
<path d="M0 7C0 3.13401 3.13401 0 7 0C10.7296 0 13.778 2.91685 13.9884 6.5938C13.2412 6.21406 12.3956 6 11.5 6C8.46243 6 6 8.46243 6 11.5C6 12.3956 6.21406 13.2412 6.5938 13.9884C2.91685 13.778 0 10.7296 0 7Z" fill="#EEA14F"/>
<path fill-rule="evenodd" clip-rule="evenodd" d="M11.5 16C13.9844 16 16 13.9844 16 11.5C16 9.01562 13.9844 7 11.5 7C9.01562 7 7 9.01562 7 11.5C7 13.9844 9.01562 16 11.5 16ZM10.5 9.25C10.2239 9.25 10 9.47386 10 9.75V13.25C10 13.5261 10.2239 13.75 10.5 13.75C10.7761 13.75 11 13.5261 11 13.25V9.75C11 9.47386 10.7761 9.25 10.5 9.25ZM12 9.75C12 9.47386 12.2239 9.25 12.5 9.25C12.7761 9.25 13 9.47386 13 9.75V13.25C13 13.5261 12.7761 13.75 12.5 13.75C12.2239 13.75 12 13.5261 12 13.25V9.75Z" fill="#D27614"/>
<path d="M7.65625 3.28125C7.65625 2.91758 7.36367 2.625 7 2.625C6.63633 2.625 6.34375 2.91758 6.34375 3.28125V6.34375H4.15625C3.79258 6.34375 3.5 6.63633 3.5 7C3.5 7.36367 3.79258 7.65625 4.15625 7.65625H7C7.36367 7.65625 7.65625 7.36367 7.65625 7V3.28125Z" fill="#683A08"/>
</g>
<defs>
<clipPath id="clip0_219_106">
<rect width="16" height="16" fill="white"/>
</clipPath>
</defs>
</svg>
