<svg width="16" height="16" viewBox="0 0 16 16" fill="none" xmlns="http://www.w3.org/2000/svg">
<g clip-path="url(#clip0_219_115)">
<path d="M0 7C0 3.13401 3.13401 0 7 0C10.7296 0 13.778 2.91685 13.9884 6.5938C13.2412 6.21406 12.3956 6 11.5 6C8.46243 6 6 8.46243 6 11.5C6 12.3956 6.21406 13.2412 6.5938 13.9884C2.91685 13.778 0 10.7296 0 7Z" fill="#87BD9B"/>
<path d="M7.65625 3.28125C7.65625 2.91758 7.36367 2.625 7 2.625C6.63633 2.625 6.34375 2.91758 6.34375 3.28125V6.34375H4.15625C3.79258 6.34375 3.5 6.63633 3.5 7C3.5 7.36367 3.79258 7.65625 4.15625 7.65625H7C7.36367 7.65625 7.65625 7.36367 7.65625 7V3.28125Z" fill="#0A4D21"/>
<path d="M7 11.5C7 9.01562 9.01562 7 11.5 7C13.9844 7 16 9.01562 16 11.5C16 13.9844 13.9844 16 11.5 16C9.01562 16 7 13.9844 7 11.5ZM13.6031 10.8531C13.8 10.6594 13.8 10.3406 13.6031 10.1469C13.4094 9.95 13.0906 9.95 12.8969 10.1469L11 12.0437L10.1031 11.1469C9.90937 10.95 9.59063 10.95 9.39688 11.1469C9.2 11.3406 9.2 11.6594 9.39688 11.8531L10.6469 13.1031C10.8406 13.3 11.1594 13.3 11.3531 13.1031L13.6031 10.8531Z" fill="#0F7B38"/>
</g>
<defs>
<clipPath id="clip0_219_115">
<rect width="16" height="16" fill="white"/>
</clipPath>
</defs>
</svg>
