<svg width="16" height="16" viewBox="0 0 16 16" fill="none" xmlns="http://www.w3.org/2000/svg">
<path d="M15.9033 8.08177C14.397 5.05076 11.4147 3 8 3C4.58527 3 1.60221 5.05219 0.0966517 8.08206C0.0331076 8.21168 0 8.3549 0 8.50014C0 8.64539 0.0331076 8.7886 0.0966517 8.91823C1.60304 11.9492 4.58527 14 8 14C11.4147 14 14.3978 11.9478 15.9033 8.91794C15.9669 8.78832 16 8.6451 16 8.49986C16 8.35461 15.9669 8.2114 15.9033 8.08177ZM8 12.625C7.20887 12.625 6.43551 12.3831 5.77771 11.9298C5.11992 11.4766 4.60723 10.8323 4.30447 10.0786C4.00172 9.32482 3.92251 8.49542 4.07685 7.69525C4.23119 6.89508 4.61216 6.16008 5.17157 5.58318C5.73098 5.00629 6.44371 4.61342 7.21964 4.45426C7.99556 4.2951 8.79983 4.37679 9.53074 4.689C10.2616 5.00121 10.8864 5.52992 11.3259 6.20827C11.7654 6.88663 12 7.68415 12 8.5C12.0003 9.04178 11.897 9.57829 11.696 10.0789C11.4951 10.5795 11.2005 11.0343 10.829 11.4174C10.4575 11.8005 10.0165 12.1043 9.53104 12.3115C9.04562 12.5187 8.52536 12.6253 8 12.625Z" fill="#80B7E5"/>
<path d="M8 5.75001C7.76198 5.75344 7.5255 5.78996 7.29694 5.85858C7.48534 6.1226 7.57575 6.4475 7.55177 6.77437C7.52779 7.10123 7.39102 7.40841 7.16625 7.6402C6.94148 7.87199 6.64361 8.01304 6.32665 8.03777C6.00969 8.06249 5.69463 7.96926 5.43861 7.77498C5.29282 8.32887 5.31914 8.91597 5.51385 9.45363C5.70857 9.99129 6.06188 10.4524 6.52406 10.7722C6.98623 11.0919 7.534 11.2542 8.09027 11.236C8.64654 11.2179 9.18328 11.0203 9.62497 10.6712C10.0667 10.322 10.391 9.83875 10.5525 9.28948C10.7139 8.74022 10.7042 8.15258 10.5248 7.60929C10.3454 7.06599 10.0053 6.59438 9.5524 6.26085C9.09948 5.92732 8.55654 5.74866 8 5.75001Z" fill="#0070CC"/>
</svg>
