<svg width="16" height="16" viewBox="0 0 16 16" fill="none" xmlns="http://www.w3.org/2000/svg">
<g clip-path="url(#clip0_219_199)">
<path d="M2.33493 5.16322C1.42043 5.9642 0.656418 6.95555 0.0966517 8.08206C0.0331076 8.21168 0 8.3549 0 8.50014C0 8.64539 0.0331076 8.7886 0.0966517 8.91823C1.60304 11.9492 4.58527 14 8 14C8.94756 14 9.86188 13.842 10.7206 13.5489L9.49739 12.3257C9.02162 12.5236 8.51324 12.6253 8 12.625C7.20887 12.625 6.43551 12.3831 5.77771 11.9298C5.11992 11.4766 4.60723 10.8323 4.30447 10.0786C4.00172 9.32482 3.92251 8.49542 4.07685 7.69525C4.11774 7.48326 4.17454 7.27585 4.24634 7.07473L2.33493 5.16322Z" fill="#80B7E5"/>
<path d="M5.362 8.19044C5.31611 8.61601 5.36725 9.04883 5.51385 9.45362C5.70857 9.99128 6.06188 10.4524 6.52406 10.7722C6.98623 11.0919 7.534 11.2541 8.09027 11.236C8.18812 11.2328 8.28536 11.2241 8.38159 11.21L5.362 8.19044Z" fill="#80B7E5"/>
<path d="M10.137 10.1368L7.36991 7.36966C7.47337 7.18958 7.53623 6.9861 7.55177 6.77436C7.57574 6.44749 7.48534 6.12259 7.29694 5.85857C7.5255 5.78995 7.76198 5.75343 8 5.75C8.55654 5.74865 9.09948 5.92731 9.5524 6.26084C10.0053 6.59438 10.3454 7.06598 10.5248 7.60928C10.7042 8.15258 10.7139 8.74021 10.5525 9.28948C10.4622 9.59649 10.3211 9.88287 10.137 10.1368Z" fill="#80B7E5"/>
<path d="M11.1037 11.1034C11.3478 10.7939 11.5475 10.4489 11.696 10.0789C11.897 9.57829 12.0003 9.04178 12 8.5C12 7.68415 11.7654 6.88663 11.3259 6.20827C10.8864 5.52992 10.2616 5.00121 9.53074 4.689C8.79983 4.37679 7.99556 4.2951 7.21964 4.45426C6.53783 4.59412 5.90481 4.91443 5.38173 5.38148L4.00551 4.00526C5.20939 3.36158 6.56667 3 8 3C11.4147 3 14.397 5.05076 15.9033 8.08177C15.9669 8.2114 16 8.35461 16 8.49986C16 8.6451 15.9669 8.78832 15.9033 8.91794C15.1425 10.4491 14.0044 11.7305 12.6239 12.6236L11.1037 11.1034Z" fill="#80B7E5"/>
<path d="M1.70711 2.12129C1.31658 1.73077 1.31658 1.0976 1.70711 0.707078C2.09763 0.316554 2.7308 0.316554 3.12132 0.707078L15.2872 12.8729C15.6777 13.2634 15.6777 13.8966 15.2872 14.2871C14.8966 14.6776 14.2635 14.6776 13.8729 14.2871L1.70711 2.12129Z" fill="#0070CC"/>
</g>
<defs>
<clipPath id="clip0_219_199">
<rect width="16" height="16" fill="white"/>
</clipPath>
</defs>
</svg>
