<svg width="16" height="16" viewBox="0 0 16 16" fill="none" xmlns="http://www.w3.org/2000/svg">
<path fill-rule="evenodd" clip-rule="evenodd" d="M12 2.25C12 2.65895 11.8036 3.02204 11.5 3.25009V9.24991C11.8036 9.47796 12 9.84105 12 10.25C12 10.9404 11.4404 11.5 10.75 11.5C10.341 11.5 9.97796 11.3036 9.74991 11H2.25009C2.02204 11.3036 1.65895 11.5 1.25 11.5C0.559644 11.5 0 10.9404 0 10.25C0 9.84105 0.196388 9.47796 0.5 9.24991V3.25009C0.196388 3.02204 0 2.65895 0 2.25C0 1.55964 0.559644 1 1.25 1C1.65895 1 2.02204 1.19639 2.25009 1.5H9.74991C9.97796 1.19639 10.341 1 10.75 1C11.4404 1 12 1.55964 12 2.25ZM2 3.25009V9.24991C2.0947 9.32104 2.17896 9.4053 2.25009 9.5H9.74991C9.82104 9.4053 9.9053 9.32104 10 9.24991V3.25009C9.9053 3.17896 9.82104 3.0947 9.74991 3H2.25009C2.17896 3.0947 2.0947 3.17896 2 3.25009Z" fill="#0070CC"/>
<path d="M4.5 12V12.7499C4.19639 12.978 4 13.341 4 13.75C4 14.4404 4.55964 15 5.25 15C5.65895 15 6.02204 14.8036 6.25009 14.5H13.7499C13.978 14.8036 14.341 15 14.75 15C15.4404 15 16 14.4404 16 13.75C16 13.341 15.8036 12.978 15.5 12.7499V6.75009C15.8036 6.52204 16 6.15895 16 5.75C16 5.05964 15.4404 4.5 14.75 4.5C14.341 4.5 13.978 4.69639 13.7499 5H12.5V6.5H13.7499C13.821 6.5947 13.9053 6.67896 14 6.75009V12.7499C13.9053 12.821 13.821 12.9053 13.7499 13H6.25009C6.17896 12.9053 6.0947 12.821 6 12.7499V12H4.5Z" fill="#80B7E5"/>
</svg>
